<svg version="1.1" id="Layer_1" xmlns="http://www.w3.org/2000/svg" xmlns:xlink="http://www.w3.org/1999/xlink" x="0px" y="0px"
	 width="100%" viewBox="0 0 2296 300" enable-background="new 0 0 2296 300" xml:space="preserve">
<path fill="#FEFEFE" opacity="1.000000" stroke="none" 
	d="
M1724.000000,301.000000 
	C1149.388550,301.000000 575.277100,301.000000 1.082803,301.000000 
	C1.082803,201.064880 1.082803,101.129662 1.082803,1.097224 
	C766.333313,1.097224 1531.666626,1.097224 2296.972168,1.097224 
	C2296.972168,101.056511 2296.972168,201.028259 2296.972168,301.000000 
	C2106.129395,301.000000 1915.314697,301.000000 1724.000000,301.000000 
M150.482269,32.948509 
	C141.385880,31.175148 132.337402,28.238770 123.183510,27.861748 
	C101.726036,26.977983 80.217995,27.200550 58.730621,27.218948 
	C48.889454,27.227375 44.301373,31.774900 43.229076,41.761044 
	C43.034248,43.575455 43.103371,45.421703 43.104935,47.253208 
	C43.162201,114.405739 43.214542,181.558273 43.333809,248.710709 
	C43.338181,251.171005 43.771030,253.694565 44.421600,256.074554 
	C45.377197,259.570435 47.408577,261.325989 51.569534,261.347839 
	C65.561638,261.421173 79.549034,262.209778 93.541992,262.350555 
	C112.267746,262.538971 130.728149,260.549927 148.694672,254.843552 
	C223.467987,231.094742 240.149094,151.175323 222.277313,104.476257 
	C209.230270,70.384270 185.182755,46.697193 150.482269,32.948509 
M1454.243042,257.886047 
	C1481.595093,250.812531 1504.340332,236.643188 1520.920166,213.543716 
	C1543.196533,182.507355 1550.736206,148.080704 1539.583740,111.381706 
	C1526.459229,68.194107 1497.627075,39.972187 1453.013062,29.762430 
	C1422.761719,22.839548 1391.996094,29.780689 1360.732666,27.301016 
	C1359.806519,39.619522 1358.191650,51.531883 1358.136230,63.451492 
	C1357.859985,122.916611 1357.943970,182.383698 1358.017090,241.849945 
	C1358.035767,256.997528 1364.282227,262.504517 1379.296753,261.987396 
	C1392.599731,261.529236 1405.939697,261.966125 1419.227539,261.297791 
	C1430.652466,260.723206 1442.026733,259.145874 1454.243042,257.886047 
M920.560364,85.021942 
	C899.426086,98.672737 884.362610,117.271736 876.113281,141.019287 
	C861.710876,182.480347 886.534973,228.275574 914.201904,246.590500 
	C948.104065,269.033020 984.288818,270.358978 1020.510254,253.054855 
	C1063.040283,232.736908 1083.800781,187.838562 1070.707642,144.036331 
	C1060.209473,108.915283 1036.584717,85.659790 1000.807617,75.999344 
	C973.281982,68.566902 946.447327,69.931618 920.560364,85.021942 
M555.406494,109.927444 
	C539.757080,130.430771 533.400024,153.428085 535.884644,179.169403 
	C540.041687,222.237076 577.181152,258.498596 620.363342,261.170654 
	C639.312195,262.343170 658.249573,263.718353 677.205750,264.750580 
	C687.014038,265.284668 696.855164,265.542755 706.676147,265.436249 
	C719.401428,265.298248 724.463745,259.996307 724.715820,247.365173 
	C724.725830,246.865646 724.718750,246.365662 724.713501,245.865936 
	C724.416870,217.381790 724.126404,188.897583 723.818787,160.413544 
	C723.701416,149.543594 720.197632,145.649536 709.191589,145.216537 
	C694.546753,144.640366 679.885986,144.311356 665.230042,144.226486 
	C652.408875,144.152237 646.174988,149.998962 643.949097,162.627075 
	C642.685364,169.796799 640.851196,176.884842 638.919617,183.912277 
	C637.229248,190.061966 638.239258,193.494980 643.630310,197.094299 
	C644.681519,197.796143 645.766174,198.447861 647.381409,199.467270 
	C638.949585,201.956512 631.140930,202.346680 623.300354,200.461258 
	C610.752808,197.443985 600.271912,185.550003 598.947632,173.061768 
	C597.318726,157.700745 605.250183,142.542511 618.462280,136.183655 
	C631.870728,129.730286 645.533875,130.150284 659.098083,135.558380 
	C667.706909,138.990753 669.349731,138.777481 675.638245,132.176437 
	C680.921936,126.630196 686.600586,121.453285 691.767517,115.804771 
	C697.240417,109.821648 702.315674,103.474762 708.342651,96.369484 
	C701.785095,92.083092 696.431702,87.817177 690.445923,84.810280 
	C669.861694,74.470055 647.864319,72.306274 625.295959,75.081543 
	C598.206726,78.412735 574.277893,88.371910 555.406494,109.927444 
M470.368347,110.345558 
	C470.368347,112.527428 470.368347,114.709297 470.368347,117.796303 
	C464.304779,107.980545 459.273926,99.018280 453.449402,90.605492 
	C445.337646,78.889091 434.412048,71.125267 419.519012,72.344963 
	C409.985077,73.125771 400.592102,75.627907 390.996735,77.383842 
	C390.996735,79.832085 390.996735,81.479462 390.996735,83.126839 
	C390.996765,109.287758 390.996185,135.448669 390.996918,161.609589 
	C390.997772,191.103119 390.980438,220.596680 391.015106,250.090179 
	C391.023590,257.298981 391.779694,258.314362 398.707245,260.151794 
	C412.901428,263.916626 427.086060,262.848114 441.196869,259.648376 
	C445.436829,258.686951 447.628876,255.603104 447.851807,251.338760 
	C447.981354,248.860703 447.536682,246.358383 447.524750,243.866135 
	C447.479919,234.502930 447.506744,225.139389 447.506744,215.775970 
	C450.584167,218.703842 452.888580,221.891800 454.805542,225.297806 
	C459.040192,232.821793 462.926361,240.544037 467.239777,248.020950 
	C472.057343,256.371735 479.621307,261.540192 489.066223,261.902802 
	C502.584412,262.421814 516.154663,261.583496 529.959045,261.319885 
	C530.676392,253.612793 531.685486,247.342361 531.778015,241.058441 
	C532.555664,188.245987 533.118469,135.430496 530.029846,82.663017 
	C529.939209,81.114670 528.455566,78.652992 527.189575,78.334641 
	C520.492676,76.650620 513.704834,74.872292 506.857086,74.367111 
	C499.424286,73.818787 491.872955,75.061470 484.405914,74.747665 
	C474.433929,74.328606 470.247009,77.827408 470.222687,87.891342 
	C470.205414,95.055046 470.321381,102.219086 470.368347,110.345558 
M1142.536865,231.930893 
	C1145.267090,235.906540 1147.883667,239.966278 1150.748169,243.842758 
	C1161.142334,257.909058 1174.779053,265.009369 1192.562012,262.990356 
	C1195.703491,262.633698 1198.867798,262.394073 1201.976685,261.846527 
	C1213.893311,259.747833 1217.929443,254.980347 1218.147583,242.958313 
	C1218.162720,242.125351 1218.161987,241.292023 1218.160645,240.458862 
	C1218.081909,190.300034 1218.004395,140.141205 1217.916016,89.982391 
	C1217.912842,88.151299 1217.957764,86.300301 1217.719727,84.492882 
	C1216.727051,76.953728 1213.160889,74.290901 1205.510132,74.611702 
	C1200.543091,74.819969 1195.551025,74.460121 1190.571045,74.324059 
	C1181.795410,74.084282 1172.969971,72.638748 1164.439819,76.298759 
	C1159.779053,78.298531 1157.516846,81.172249 1157.698242,86.561829 
	C1158.060303,97.315269 1157.805420,108.089493 1157.805420,119.697159 
	C1151.982666,115.265694 1149.520386,109.886269 1147.936035,103.876236 
	C1143.953003,88.767708 1135.483887,77.354660 1119.440674,74.625351 
	C1110.747925,73.146515 1101.478638,73.559708 1092.663574,74.665855 
	C1080.875244,76.145088 1077.849487,80.518906 1077.860596,92.481102 
	C1077.904297,139.473785 1077.959839,186.466476 1078.077759,233.459015 
	C1078.089478,238.113586 1078.381714,242.784927 1078.850830,247.417374 
	C1079.995605,258.719055 1084.250000,262.859772 1095.608887,262.733337 
	C1104.751221,262.631592 1113.909912,261.908752 1123.012451,260.981354 
	C1130.709839,260.197113 1133.845947,256.699005 1134.582520,249.064484 
	C1134.821045,246.592865 1134.565918,244.075104 1134.562866,241.578430 
	C1134.554443,234.732819 1134.560059,227.887207 1134.560059,221.041595 
	C1134.930542,220.992081 1135.300903,220.942566 1135.671387,220.893051 
	C1137.819824,224.374451 1139.968262,227.855850 1142.536865,231.930893 
M2245.583252,214.884155 
	C2236.325928,202.999344 2235.396484,191.063370 2244.190918,178.225754 
	C2249.900391,169.891754 2252.595215,160.158813 2252.988525,150.000549 
	C2254.534180,110.073769 2227.644043,79.196465 2187.520264,76.237534 
	C2165.475586,74.611855 2143.282715,74.825844 2121.152832,74.602142 
	C2111.461182,74.504181 2108.803955,77.628632 2108.814941,87.302269 
	C2108.876221,141.440796 2108.970703,195.579285 2109.062744,249.717773 
	C2109.064941,251.048401 2109.064941,252.392868 2109.242920,253.706848 
	C2109.887939,258.464844 2112.316650,261.070038 2117.453613,261.265442 
	C2124.768311,261.543701 2132.068604,262.733978 2139.370117,262.690063 
	C2146.968506,262.644379 2154.689697,262.258057 2162.123535,260.816040 
	C2171.436768,259.009491 2174.250000,254.706497 2173.952637,245.265274 
	C2173.790527,240.112045 2173.352295,234.965591 2172.959717,229.822098 
	C2172.630859,225.516144 2174.209229,222.284454 2178.168457,219.976547 
	C2178.886963,221.624237 2179.533447,223.130173 2180.198486,224.628082 
	C2197.819336,264.318207 2233.436279,268.833679 2270.432373,257.380615 
	C2269.437012,254.572403 2268.900879,251.493042 2267.375488,249.025253 
	C2260.404053,237.746811 2253.155029,226.639847 2245.583252,214.884155 
M1613.500000,261.169708 
	C1622.165771,261.169708 1630.831543,261.162079 1639.497314,261.171539 
	C1651.991577,261.185211 1664.491577,261.445160 1676.977905,261.139862 
	C1683.899170,260.970612 1687.826660,256.966919 1687.869507,250.015762 
	C1687.946411,237.530533 1687.766479,225.024857 1687.091431,212.560333 
	C1686.621094,203.876633 1683.403564,200.493179 1674.563843,200.111298 
	C1656.769531,199.342545 1638.942627,199.323029 1621.129028,199.002396 
	C1619.446899,198.972107 1617.763672,198.998352 1616.080811,198.998352 
	C1625.455444,194.117920 1635.319580,193.907547 1645.320190,194.381638 
	C1650.962646,194.649109 1656.680908,195.067902 1662.262817,194.468109 
	C1671.221558,193.505432 1674.965210,189.261169 1674.864502,180.243439 
	C1674.790527,173.612488 1673.856689,166.978256 1673.089600,160.370605 
	C1671.503296,146.705124 1668.570679,143.783997 1654.807373,143.220230 
	C1644.657837,142.804504 1634.480713,143.096725 1624.317261,142.958344 
	C1622.193237,142.929428 1619.678345,142.990585 1618.073730,141.917801 
	C1616.625854,140.949799 1615.901733,138.543686 1615.505859,136.637299 
	C1615.419312,136.221039 1618.066284,134.641220 1619.478516,134.607605 
	C1627.806152,134.409454 1636.141357,134.554153 1644.473389,134.498764 
	C1654.966064,134.429047 1665.460938,134.384949 1675.949707,134.126221 
	C1683.542847,133.938934 1687.338013,130.371902 1687.610718,123.961494 
	C1687.886353,117.484024 1688.342529,111.013329 1688.783203,104.543999 
	C1689.388428,95.660767 1689.652832,86.900650 1684.130981,79.087975 
	C1681.935059,75.981026 1679.437134,74.412750 1675.465454,74.424606 
	C1638.304688,74.535492 1601.143555,74.488274 1563.982422,74.499702 
	C1562.652222,74.500114 1561.318481,74.595642 1559.992310,74.712578 
	C1551.873779,75.428375 1548.874878,78.472778 1548.283447,86.657616 
	C1548.163696,88.316261 1548.221924,89.988815 1548.222900,91.654945 
	C1548.251099,142.315948 1548.271606,192.976959 1548.340576,243.637909 
	C1548.344604,246.623825 1548.507080,249.649277 1549.008301,252.585938 
	C1549.858521,257.565948 1552.846313,260.590759 1558.027832,261.061340 
	C1560.512695,261.286987 1563.013794,261.455475 1565.506714,261.445892 
	C1581.171387,261.385773 1596.835571,261.268280 1613.500000,261.169708 
M850.470459,261.497986 
	C853.792236,261.326569 857.146423,261.385925 860.427368,260.924347 
	C864.374695,260.368988 867.447510,258.145813 867.907166,254.013031 
	C869.081421,243.456421 870.745483,232.853973 870.654663,222.283234 
	C870.549316,210.010239 864.262085,203.360321 852.271118,200.930359 
	C846.759277,199.813370 841.057068,199.074600 835.448486,199.117920 
	C825.136780,199.197556 814.829590,199.965012 804.522461,200.483170 
	C800.720764,200.674271 797.471680,200.161972 796.930054,195.161362 
	C806.067139,192.098389 815.358276,192.895340 824.630432,193.648300 
	C833.806335,194.393448 842.893066,194.569748 851.807983,191.566406 
	C854.390808,190.696289 855.632996,189.492065 855.647705,186.694916 
	C855.700317,176.710297 856.747864,166.650482 855.855530,156.760193 
	C854.519531,141.952332 856.699707,144.183487 841.825012,143.155670 
	C831.212830,142.422363 820.505676,143.178040 809.856445,142.812805 
	C805.140686,142.651077 800.463562,141.360718 795.768921,140.582687 
	C795.755859,139.722000 795.742737,138.861328 795.729675,138.000641 
	C802.982422,136.722885 810.191833,134.800827 817.497375,134.310486 
	C830.105652,133.464203 842.815735,134.027908 855.403076,133.010315 
	C865.163147,132.221283 869.644592,126.997215 869.926208,117.197174 
	C870.183838,108.228737 869.903198,99.207222 869.218018,90.258232 
	C868.221985,77.248711 864.912964,74.549255 851.950806,74.518913 
	C818.133545,74.439743 784.316345,74.333084 750.499329,74.181717 
	C733.950928,74.107651 730.685425,77.401329 730.697754,93.973869 
	C730.734436,143.286346 730.691711,192.598862 730.705750,241.911362 
	C730.706604,244.905823 730.719299,247.927551 731.099609,250.888687 
	C731.789001,256.258545 735.205139,260.073517 740.108582,260.889160 
	C743.375549,261.432617 746.721680,261.747650 750.031982,261.744324 
	C783.181213,261.711182 816.330322,261.590668 850.470459,261.497986 
M2071.482910,261.167847 
	C2077.140869,261.388397 2082.797363,261.662964 2088.457031,261.817108 
	C2097.594971,262.065979 2101.403076,259.506683 2102.243896,250.515289 
	C2103.217773,240.103455 2103.524902,229.554214 2103.106689,219.105194 
	C2102.518555,204.410767 2096.412354,199.603973 2081.672363,200.026718 
	C2066.186035,200.470856 2050.686279,200.461288 2035.192261,200.613434 
	C2033.605957,200.629013 2032.017456,200.394241 2030.633423,200.290833 
	C2029.270874,195.865463 2031.101929,194.231293 2034.800415,193.952499 
	C2037.942139,193.715668 2041.088989,193.144043 2044.219116,193.232147 
	C2053.194092,193.484711 2062.161865,193.989670 2071.132080,194.409149 
	C2082.466797,194.939240 2090.646973,186.833969 2089.771973,176.577774 
	C2089.178711,169.619751 2089.538086,162.585312 2089.113281,155.606873 
	C2088.609863,147.337479 2085.993408,144.453568 2077.837402,143.934067 
	C2069.214355,143.384827 2060.541016,143.296417 2051.898682,143.464813 
	C2042.929077,143.639603 2034.461548,142.697266 2027.471313,135.797577 
	C2039.456787,134.687057 2051.395020,134.146149 2063.338623,133.934006 
	C2072.657715,133.768463 2081.994141,134.306091 2091.304199,133.987579 
	C2100.079590,133.687378 2103.039551,129.886200 2102.855957,121.268044 
	C2102.750244,116.289955 2103.298340,111.299759 2103.497803,106.312843 
	C2103.697021,101.327827 2104.288330,96.303543 2103.895508,91.361000 
	C2103.016357,80.296356 2096.856201,74.832207 2086.038574,74.832207 
	C2047.372681,74.832207 2008.706787,74.832222 1970.040894,74.832222 
	C1968.266357,74.832222 1966.491699,74.832222 1964.549927,74.832222 
	C1964.549927,77.282936 1964.549927,79.109055 1964.549927,80.935173 
	C1964.549927,135.267395 1964.549561,189.599625 1964.550415,243.931854 
	C1964.550659,259.502502 1966.527710,261.538513 1981.994629,261.497040 
	C2011.492798,261.417908 2040.990723,261.280762 2071.482910,261.167847 
M232.032288,182.472275 
	C232.300598,187.121246 232.317200,191.800735 232.876556,196.414413 
	C237.894775,237.805725 271.311981,265.368347 310.408447,263.198578 
	C350.389374,260.979797 381.217560,230.406204 381.903931,190.274765 
	C382.430786,159.470337 382.024475,128.649353 381.941284,97.835983 
	C381.932770,94.694702 381.492188,91.517349 380.905304,88.422501 
	C379.626099,81.676918 376.156189,75.932487 368.962616,75.530342 
	C355.402618,74.772301 341.767914,74.792336 328.187836,75.226135 
	C322.742310,75.400085 319.289032,79.409813 318.608368,85.098930 
	C318.312897,87.568520 318.166626,90.070976 318.165985,92.558563 
	C318.158661,121.873322 318.220734,151.188126 318.174225,180.502792 
	C318.168976,183.802261 317.970581,187.184250 317.229767,190.381531 
	C315.910645,196.074585 312.160339,198.942245 307.077637,198.803848 
	C301.052887,198.639816 297.031372,195.289978 296.112457,189.245163 
	C295.614441,185.968994 295.487061,182.609726 295.490723,179.288284 
	C295.523193,149.810837 295.638794,120.333481 295.674164,90.856026 
	C295.677338,88.201248 295.313232,85.543915 295.078552,82.891411 
	C294.663391,78.198112 291.939056,75.319374 287.399750,75.229607 
	C272.596252,74.936882 257.777924,74.705139 242.981110,75.077484 
	C236.433014,75.242264 233.002655,79.387566 232.132919,86.046509 
	C231.875504,88.017410 231.942459,90.037132 231.943939,92.034424 
	C231.966019,121.849899 232.002060,151.665359 232.032288,182.472275 
M1880.846191,123.284660 
	C1878.203979,130.890381 1875.561890,138.496109 1872.706055,146.716812 
	C1871.876709,145.159973 1871.321655,144.326706 1870.963867,143.415939 
	C1864.171875,126.129105 1857.047485,108.961761 1850.732788,91.501770 
	C1844.774414,75.027100 1847.456665,74.868050 1827.392212,74.838585 
	C1813.276001,74.817848 1799.159790,74.834579 1784.880493,74.834579 
	C1784.308228,85.615639 1787.222046,95.132294 1789.951050,104.708351 
	C1803.647217,152.767441 1817.233398,200.857910 1830.972168,248.904785 
	C1833.920654,259.216370 1837.208862,261.439148 1847.794189,261.508026 
	C1863.275269,261.608704 1878.756714,261.698822 1894.237427,261.842926 
	C1901.439697,261.909973 1906.784424,258.888428 1909.862793,252.361237 
	C1911.198730,249.528442 1912.156738,246.488678 1913.023193,243.467438 
	C1927.806519,191.916595 1942.533447,140.349640 1957.312012,88.797401 
	C1960.204956,78.705994 1958.357666,75.519989 1948.135010,75.097763 
	C1937.000000,74.637856 1925.818604,75.190704 1914.694824,74.599808 
	C1901.064331,73.875771 1896.170410,76.806549 1891.813110,89.898758 
	C1888.197144,100.763031 1884.624756,111.641869 1880.846191,123.284660 
M1756.999878,124.500000 
	C1756.705200,113.518448 1756.738037,102.515526 1756.023071,91.561417 
	C1755.320068,80.788651 1751.021851,76.405212 1740.180176,75.283577 
	C1732.081421,74.445709 1723.891479,74.259239 1715.739624,74.211472 
	C1697.387939,74.103935 1693.036133,78.646187 1693.058594,96.830513 
	C1693.116943,144.132294 1693.089233,191.434204 1693.124023,238.736038 
	C1693.126099,241.559570 1693.143921,244.417282 1693.553955,247.200226 
	C1695.130493,257.901031 1700.271118,262.126190 1711.157471,261.974030 
	C1723.476807,261.801819 1735.796387,261.652313 1748.116089,261.512787 
	C1761.101074,261.365723 1774.092041,261.430786 1787.068726,261.026855 
	C1793.331421,260.831909 1795.928833,258.655365 1796.058105,252.631500 
	C1796.382568,237.505264 1796.208496,222.360703 1795.851440,207.232513 
	C1795.754639,203.135086 1793.285522,199.988754 1788.622925,199.731277 
	C1785.322754,199.549011 1782.008911,199.492905 1778.703979,199.547867 
	C1774.715332,199.614166 1770.715820,200.144791 1766.745972,199.953888 
	C1761.341797,199.694046 1758.144165,196.725891 1757.246216,191.436905 
	C1756.831543,188.994949 1756.878784,186.458145 1756.880981,183.964523 
	C1756.898315,164.476318 1756.955444,144.988174 1756.999878,124.500000 
z"/>
<path fill="#010101" opacity="1.000000" stroke="none" 
	d="
M150.864349,33.037819 
	C185.182755,46.697193 209.230270,70.384270 222.277313,104.476257 
	C240.149094,151.175323 223.467987,231.094742 148.694672,254.843552 
	C130.728149,260.549927 112.267746,262.538971 93.541992,262.350555 
	C79.549034,262.209778 65.561638,261.421173 51.569534,261.347839 
	C47.408577,261.325989 45.377197,259.570435 44.421600,256.074554 
	C43.771030,253.694565 43.338181,251.171005 43.333809,248.710709 
	C43.214542,181.558273 43.162201,114.405739 43.104935,47.253208 
	C43.103371,45.421703 43.034248,43.575455 43.229076,41.761044 
	C44.301373,31.774900 48.889454,27.227375 58.730621,27.218948 
	C80.217995,27.200550 101.726036,26.977983 123.183510,27.861748 
	C132.337402,28.238770 141.385880,31.175148 150.864349,33.037819 
M149.811874,169.239777 
	C155.098648,161.607880 157.068054,153.034332 157.486298,143.870758 
	C158.679779,117.723228 142.297531,104.745445 126.173843,99.581955 
	C118.493423,97.122360 115.019165,99.706139 114.984718,107.632034 
	C114.874031,133.097443 114.825836,158.563110 114.777718,184.028748 
	C114.775375,185.265915 115.002975,186.503510 115.130714,187.814896 
	C128.784454,185.518967 140.869049,181.056625 149.811874,169.239777 
z"/>
<path fill="#010101" opacity="1.000000" stroke="none" 
	d="
M1453.833252,257.949005 
	C1442.026733,259.145874 1430.652466,260.723206 1419.227539,261.297791 
	C1405.939697,261.966125 1392.599731,261.529236 1379.296753,261.987396 
	C1364.282227,262.504517 1358.035767,256.997528 1358.017090,241.849945 
	C1357.943970,182.383698 1357.859985,122.916611 1358.136230,63.451492 
	C1358.191650,51.531883 1359.806519,39.619522 1360.732666,27.301016 
	C1391.996094,29.780689 1422.761719,22.839548 1453.013062,29.762430 
	C1497.627075,39.972187 1526.459229,68.194107 1539.583740,111.381706 
	C1550.736206,148.080704 1543.196533,182.507355 1520.920166,213.543716 
	C1504.340332,236.643188 1481.595093,250.812531 1453.833252,257.949005 
M1474.043091,133.624985 
	C1470.471313,119.706657 1462.490234,109.134094 1449.846436,102.275795 
	C1436.406982,94.985962 1430.496948,98.640068 1430.163208,113.913841 
	C1429.713013,134.515701 1429.001709,155.111786 1428.432739,175.711197 
	C1428.396484,177.030731 1428.541748,178.369263 1428.737061,179.678925 
	C1429.839478,187.076843 1432.053589,188.578201 1439.226929,186.858017 
	C1463.543579,181.026855 1479.327515,157.366531 1474.043091,133.624985 
z"/>
<path fill="#010101" opacity="1.000000" stroke="none" 
	d="
M920.886841,84.857849 
	C946.447327,69.931618 973.281982,68.566902 1000.807617,75.999344 
	C1036.584717,85.659790 1060.209473,108.915283 1070.707642,144.036331 
	C1083.800781,187.838562 1063.040283,232.736908 1020.510254,253.054855 
	C984.288818,270.358978 948.104065,269.033020 914.201904,246.590500 
	C886.534973,228.275574 861.710876,182.480347 876.113281,141.019287 
	C884.362610,117.271736 899.426086,98.672737 920.886841,84.857849 
M940.788513,177.509262 
	C947.869873,197.979874 972.353516,207.396149 990.983948,196.528046 
	C1005.146667,188.266235 1016.585388,169.608871 1003.469971,149.698929 
	C993.583191,134.690262 968.015564,129.207535 954.159180,140.565125 
	C943.161499,149.579544 936.880005,161.609344 940.788513,177.509262 
z"/>
<path fill="#010101" opacity="1.000000" stroke="none" 
	d="
M555.638916,109.657425 
	C574.277893,88.371910 598.206726,78.412735 625.295959,75.081543 
	C647.864319,72.306274 669.861694,74.470055 690.445923,84.810280 
	C696.431702,87.817177 701.785095,92.083092 708.342651,96.369484 
	C702.315674,103.474762 697.240417,109.821648 691.767517,115.804771 
	C686.600586,121.453285 680.921936,126.630196 675.638245,132.176437 
	C669.349731,138.777481 667.706909,138.990753 659.098083,135.558380 
	C645.533875,130.150284 631.870728,129.730286 618.462280,136.183655 
	C605.250183,142.542511 597.318726,157.700745 598.947632,173.061768 
	C600.271912,185.550003 610.752808,197.443985 623.300354,200.461258 
	C631.140930,202.346680 638.949585,201.956512 647.381409,199.467270 
	C645.766174,198.447861 644.681519,197.796143 643.630310,197.094299 
	C638.239258,193.494980 637.229248,190.061966 638.919617,183.912277 
	C640.851196,176.884842 642.685364,169.796799 643.949097,162.627075 
	C646.174988,149.998962 652.408875,144.152237 665.230042,144.226486 
	C679.885986,144.311356 694.546753,144.640366 709.191589,145.216537 
	C720.197632,145.649536 723.701416,149.543594 723.818787,160.413544 
	C724.126404,188.897583 724.416870,217.381790 724.713501,245.865936 
	C724.718750,246.365662 724.725830,246.865646 724.715820,247.365173 
	C724.463745,259.996307 719.401428,265.298248 706.676147,265.436249 
	C696.855164,265.542755 687.014038,265.284668 677.205750,264.750580 
	C658.249573,263.718353 639.312195,262.343170 620.363342,261.170654 
	C577.181152,258.498596 540.041687,222.237076 535.884644,179.169403 
	C533.400024,153.428085 539.757080,130.430771 555.638916,109.657425 
z"/>
<path fill="#010101" opacity="1.000000" stroke="none" 
	d="
M470.373108,109.864265 
	C470.321381,102.219086 470.205414,95.055046 470.222687,87.891342 
	C470.247009,77.827408 474.433929,74.328606 484.405914,74.747665 
	C491.872955,75.061470 499.424286,73.818787 506.857086,74.367111 
	C513.704834,74.872292 520.492676,76.650620 527.189575,78.334641 
	C528.455566,78.652992 529.939209,81.114670 530.029846,82.663017 
	C533.118469,135.430496 532.555664,188.245987 531.778015,241.058441 
	C531.685486,247.342361 530.676392,253.612793 529.959045,261.319885 
	C516.154663,261.583496 502.584412,262.421814 489.066223,261.902802 
	C479.621307,261.540192 472.057343,256.371735 467.239777,248.020950 
	C462.926361,240.544037 459.040192,232.821793 454.805542,225.297806 
	C452.888580,221.891800 450.584167,218.703842 447.506744,215.775970 
	C447.506744,225.139389 447.479919,234.502930 447.524750,243.866135 
	C447.536682,246.358383 447.981354,248.860703 447.851807,251.338760 
	C447.628876,255.603104 445.436829,258.686951 441.196869,259.648376 
	C427.086060,262.848114 412.901428,263.916626 398.707245,260.151794 
	C391.779694,258.314362 391.023590,257.298981 391.015106,250.090179 
	C390.980438,220.596680 390.997772,191.103119 390.996918,161.609589 
	C390.996185,135.448669 390.996765,109.287758 390.996735,83.126839 
	C390.996735,81.479462 390.996735,79.832085 390.996735,77.383842 
	C400.592102,75.627907 409.985077,73.125771 419.519012,72.344963 
	C434.412048,71.125267 445.337646,78.889091 453.449402,90.605492 
	C459.273926,99.018280 464.304779,107.980545 470.368347,117.796303 
	C470.368347,114.709297 470.368347,112.527428 470.373108,109.864265 
z"/>
<path fill="#010101" opacity="1.000000" stroke="none" 
	d="
M1142.326782,231.634064 
	C1139.968262,227.855850 1137.819824,224.374451 1135.671387,220.893051 
	C1135.300903,220.942566 1134.930542,220.992081 1134.560059,221.041595 
	C1134.560059,227.887207 1134.554443,234.732819 1134.562866,241.578430 
	C1134.565918,244.075104 1134.821045,246.592865 1134.582520,249.064484 
	C1133.845947,256.699005 1130.709839,260.197113 1123.012451,260.981354 
	C1113.909912,261.908752 1104.751221,262.631592 1095.608887,262.733337 
	C1084.250000,262.859772 1079.995605,258.719055 1078.850830,247.417374 
	C1078.381714,242.784927 1078.089478,238.113586 1078.077759,233.459015 
	C1077.959839,186.466476 1077.904297,139.473785 1077.860596,92.481102 
	C1077.849487,80.518906 1080.875244,76.145088 1092.663574,74.665855 
	C1101.478638,73.559708 1110.747925,73.146515 1119.440674,74.625351 
	C1135.483887,77.354660 1143.953003,88.767708 1147.936035,103.876236 
	C1149.520386,109.886269 1151.982666,115.265694 1157.805420,119.697159 
	C1157.805420,108.089493 1158.060303,97.315269 1157.698242,86.561829 
	C1157.516846,81.172249 1159.779053,78.298531 1164.439819,76.298759 
	C1172.969971,72.638748 1181.795410,74.084282 1190.571045,74.324059 
	C1195.551025,74.460121 1200.543091,74.819969 1205.510132,74.611702 
	C1213.160889,74.290901 1216.727051,76.953728 1217.719727,84.492882 
	C1217.957764,86.300301 1217.912842,88.151299 1217.916016,89.982391 
	C1218.004395,140.141205 1218.081909,190.300034 1218.160645,240.458862 
	C1218.161987,241.292023 1218.162720,242.125351 1218.147583,242.958313 
	C1217.929443,254.980347 1213.893311,259.747833 1201.976685,261.846527 
	C1198.867798,262.394073 1195.703491,262.633698 1192.562012,262.990356 
	C1174.779053,265.009369 1161.142334,257.909058 1150.748169,243.842758 
	C1147.883667,239.966278 1145.267090,235.906540 1142.326782,231.634064 
z"/>
<path fill="#010101" opacity="1.000000" stroke="none" 
	d="
M2245.794434,215.177704 
	C2253.155029,226.639847 2260.404053,237.746811 2267.375488,249.025253 
	C2268.900879,251.493042 2269.437012,254.572403 2270.432373,257.380615 
	C2233.436279,268.833679 2197.819336,264.318207 2180.198486,224.628082 
	C2179.533447,223.130173 2178.886963,221.624237 2178.168457,219.976547 
	C2174.209229,222.284454 2172.630859,225.516144 2172.959717,229.822098 
	C2173.352295,234.965591 2173.790527,240.112045 2173.952637,245.265274 
	C2174.250000,254.706497 2171.436768,259.009491 2162.123535,260.816040 
	C2154.689697,262.258057 2146.968506,262.644379 2139.370117,262.690063 
	C2132.068604,262.733978 2124.768311,261.543701 2117.453613,261.265442 
	C2112.316650,261.070038 2109.887939,258.464844 2109.242920,253.706848 
	C2109.064941,252.392868 2109.064941,251.048401 2109.062744,249.717773 
	C2108.970703,195.579285 2108.876221,141.440796 2108.814941,87.302269 
	C2108.803955,77.628632 2111.461182,74.504181 2121.152832,74.602142 
	C2143.282715,74.825844 2165.475586,74.611855 2187.520264,76.237534 
	C2227.644043,79.196465 2254.534180,110.073769 2252.988525,150.000549 
	C2252.595215,160.158813 2249.900391,169.891754 2244.190918,178.225754 
	C2235.396484,191.063370 2236.325928,202.999344 2245.794434,215.177704 
M2190.001221,146.334488 
	C2188.470947,136.527405 2185.590332,133.773590 2177.256104,134.150375 
	C2172.510498,134.364914 2170.689697,136.535843 2171.399658,141.266968 
	C2172.132568,146.153625 2172.945068,151.028320 2173.798828,156.384445 
	C2179.733887,154.643234 2187.286133,155.479706 2190.001221,146.334488 
z"/>
<path fill="#020202" opacity="1.000000" stroke="none" 
	d="
M1613.000000,261.169739 
	C1596.835571,261.268280 1581.171387,261.385773 1565.506714,261.445892 
	C1563.013794,261.455475 1560.512695,261.286987 1558.027832,261.061340 
	C1552.846313,260.590759 1549.858521,257.565948 1549.008301,252.585938 
	C1548.507080,249.649277 1548.344604,246.623825 1548.340576,243.637909 
	C1548.271606,192.976959 1548.251099,142.315948 1548.222900,91.654945 
	C1548.221924,89.988815 1548.163696,88.316261 1548.283447,86.657616 
	C1548.874878,78.472778 1551.873779,75.428375 1559.992310,74.712578 
	C1561.318481,74.595642 1562.652222,74.500114 1563.982422,74.499702 
	C1601.143555,74.488274 1638.304688,74.535492 1675.465454,74.424606 
	C1679.437134,74.412750 1681.935059,75.981026 1684.130981,79.087975 
	C1689.652832,86.900650 1689.388428,95.660767 1688.783203,104.543999 
	C1688.342529,111.013329 1687.886353,117.484024 1687.610718,123.961494 
	C1687.338013,130.371902 1683.542847,133.938934 1675.949707,134.126221 
	C1665.460938,134.384949 1654.966064,134.429047 1644.473389,134.498764 
	C1636.141357,134.554153 1627.806152,134.409454 1619.478516,134.607605 
	C1618.066284,134.641220 1615.419312,136.221039 1615.505859,136.637299 
	C1615.901733,138.543686 1616.625854,140.949799 1618.073730,141.917801 
	C1619.678345,142.990585 1622.193237,142.929428 1624.317261,142.958344 
	C1634.480713,143.096725 1644.657837,142.804504 1654.807373,143.220230 
	C1668.570679,143.783997 1671.503296,146.705124 1673.089600,160.370605 
	C1673.856689,166.978256 1674.790527,173.612488 1674.864502,180.243439 
	C1674.965210,189.261169 1671.221558,193.505432 1662.262817,194.468109 
	C1656.680908,195.067902 1650.962646,194.649109 1645.320190,194.381638 
	C1635.319580,193.907547 1625.455444,194.117920 1616.080811,198.998352 
	C1617.763672,198.998352 1619.446899,198.972107 1621.129028,199.002396 
	C1638.942627,199.323029 1656.769531,199.342545 1674.563843,200.111298 
	C1683.403564,200.493179 1686.621094,203.876633 1687.091431,212.560333 
	C1687.766479,225.024857 1687.946411,237.530533 1687.869507,250.015762 
	C1687.826660,256.966919 1683.899170,260.970612 1676.977905,261.139862 
	C1664.491577,261.445160 1651.991577,261.185211 1639.497314,261.171539 
	C1630.831543,261.162079 1622.165771,261.169708 1613.000000,261.169739 
z"/>
<path fill="#010101" opacity="1.000000" stroke="none" 
	d="
M849.974976,261.496399 
	C816.330322,261.590668 783.181213,261.711182 750.031982,261.744324 
	C746.721680,261.747650 743.375549,261.432617 740.108582,260.889160 
	C735.205139,260.073517 731.789001,256.258545 731.099609,250.888687 
	C730.719299,247.927551 730.706604,244.905823 730.705750,241.911362 
	C730.691711,192.598862 730.734436,143.286346 730.697754,93.973869 
	C730.685425,77.401329 733.950928,74.107651 750.499329,74.181717 
	C784.316345,74.333084 818.133545,74.439743 851.950806,74.518913 
	C864.912964,74.549255 868.221985,77.248711 869.218018,90.258232 
	C869.903198,99.207222 870.183838,108.228737 869.926208,117.197174 
	C869.644592,126.997215 865.163147,132.221283 855.403076,133.010315 
	C842.815735,134.027908 830.105652,133.464203 817.497375,134.310486 
	C810.191833,134.800827 802.982422,136.722885 795.729675,138.000641 
	C795.742737,138.861328 795.755859,139.722000 795.768921,140.582687 
	C800.463562,141.360718 805.140686,142.651077 809.856445,142.812805 
	C820.505676,143.178040 831.212830,142.422363 841.825012,143.155670 
	C856.699707,144.183487 854.519531,141.952332 855.855530,156.760193 
	C856.747864,166.650482 855.700317,176.710297 855.647705,186.694916 
	C855.632996,189.492065 854.390808,190.696289 851.807983,191.566406 
	C842.893066,194.569748 833.806335,194.393448 824.630432,193.648300 
	C815.358276,192.895340 806.067139,192.098389 796.930054,195.161362 
	C797.471680,200.161972 800.720764,200.674271 804.522461,200.483170 
	C814.829590,199.965012 825.136780,199.197556 835.448486,199.117920 
	C841.057068,199.074600 846.759277,199.813370 852.271118,200.930359 
	C864.262085,203.360321 870.549316,210.010239 870.654663,222.283234 
	C870.745483,232.853973 869.081421,243.456421 867.907166,254.013031 
	C867.447510,258.145813 864.374695,260.368988 860.427368,260.924347 
	C857.146423,261.385925 853.792236,261.326569 849.974976,261.496399 
z"/>
<path fill="#010101" opacity="1.000000" stroke="none" 
	d="
M2070.985840,261.167786 
	C2040.990723,261.280762 2011.492798,261.417908 1981.994629,261.497040 
	C1966.527710,261.538513 1964.550659,259.502502 1964.550415,243.931854 
	C1964.549561,189.599625 1964.549927,135.267395 1964.549927,80.935173 
	C1964.549927,79.109055 1964.549927,77.282936 1964.549927,74.832222 
	C1966.491699,74.832222 1968.266357,74.832222 1970.040894,74.832222 
	C2008.706787,74.832222 2047.372681,74.832207 2086.038574,74.832207 
	C2096.856201,74.832207 2103.016357,80.296356 2103.895508,91.361000 
	C2104.288330,96.303543 2103.697021,101.327827 2103.497803,106.312843 
	C2103.298340,111.299759 2102.750244,116.289955 2102.855957,121.268044 
	C2103.039551,129.886200 2100.079590,133.687378 2091.304199,133.987579 
	C2081.994141,134.306091 2072.657715,133.768463 2063.338623,133.934006 
	C2051.395020,134.146149 2039.456787,134.687057 2027.471313,135.797577 
	C2034.461548,142.697266 2042.929077,143.639603 2051.898682,143.464813 
	C2060.541016,143.296417 2069.214355,143.384827 2077.837402,143.934067 
	C2085.993408,144.453568 2088.609863,147.337479 2089.113281,155.606873 
	C2089.538086,162.585312 2089.178711,169.619751 2089.771973,176.577774 
	C2090.646973,186.833969 2082.466797,194.939240 2071.132080,194.409149 
	C2062.161865,193.989670 2053.194092,193.484711 2044.219116,193.232147 
	C2041.088989,193.144043 2037.942139,193.715668 2034.800415,193.952499 
	C2031.101929,194.231293 2029.270874,195.865463 2030.633423,200.290833 
	C2032.017456,200.394241 2033.605957,200.629013 2035.192261,200.613434 
	C2050.686279,200.461288 2066.186035,200.470856 2081.672363,200.026718 
	C2096.412354,199.603973 2102.518555,204.410767 2103.106689,219.105194 
	C2103.524902,229.554214 2103.217773,240.103455 2102.243896,250.515289 
	C2101.403076,259.506683 2097.594971,262.065979 2088.457031,261.817108 
	C2082.797363,261.662964 2077.140869,261.388397 2070.985840,261.167786 
z"/>
<path fill="#010101" opacity="1.000000" stroke="none" 
	d="
M232.033539,181.976562 
	C232.002060,151.665359 231.966019,121.849899 231.943939,92.034424 
	C231.942459,90.037132 231.875504,88.017410 232.132919,86.046509 
	C233.002655,79.387566 236.433014,75.242264 242.981110,75.077484 
	C257.777924,74.705139 272.596252,74.936882 287.399750,75.229607 
	C291.939056,75.319374 294.663391,78.198112 295.078552,82.891411 
	C295.313232,85.543915 295.677338,88.201248 295.674164,90.856026 
	C295.638794,120.333481 295.523193,149.810837 295.490723,179.288284 
	C295.487061,182.609726 295.614441,185.968994 296.112457,189.245163 
	C297.031372,195.289978 301.052887,198.639816 307.077637,198.803848 
	C312.160339,198.942245 315.910645,196.074585 317.229767,190.381531 
	C317.970581,187.184250 318.168976,183.802261 318.174225,180.502792 
	C318.220734,151.188126 318.158661,121.873322 318.165985,92.558563 
	C318.166626,90.070976 318.312897,87.568520 318.608368,85.098930 
	C319.289032,79.409813 322.742310,75.400085 328.187836,75.226135 
	C341.767914,74.792336 355.402618,74.772301 368.962616,75.530342 
	C376.156189,75.932487 379.626099,81.676918 380.905304,88.422501 
	C381.492188,91.517349 381.932770,94.694702 381.941284,97.835983 
	C382.024475,128.649353 382.430786,159.470337 381.903931,190.274765 
	C381.217560,230.406204 350.389374,260.979797 310.408447,263.198578 
	C271.311981,265.368347 237.894775,237.805725 232.876556,196.414413 
	C232.317200,191.800735 232.300598,187.121246 232.033539,181.976562 
z"/>
<path fill="#010101" opacity="1.000000" stroke="none" 
	d="
M1880.939697,122.899460 
	C1884.624756,111.641869 1888.197144,100.763031 1891.813110,89.898758 
	C1896.170410,76.806549 1901.064331,73.875771 1914.694824,74.599808 
	C1925.818604,75.190704 1937.000000,74.637856 1948.135010,75.097763 
	C1958.357666,75.519989 1960.204956,78.705994 1957.312012,88.797401 
	C1942.533447,140.349640 1927.806519,191.916595 1913.023193,243.467438 
	C1912.156738,246.488678 1911.198730,249.528442 1909.862793,252.361237 
	C1906.784424,258.888428 1901.439697,261.909973 1894.237427,261.842926 
	C1878.756714,261.698822 1863.275269,261.608704 1847.794189,261.508026 
	C1837.208862,261.439148 1833.920654,259.216370 1830.972168,248.904785 
	C1817.233398,200.857910 1803.647217,152.767441 1789.951050,104.708351 
	C1787.222046,95.132294 1784.308228,85.615639 1784.880493,74.834579 
	C1799.159790,74.834579 1813.276001,74.817848 1827.392212,74.838585 
	C1847.456665,74.868050 1844.774414,75.027100 1850.732788,91.501770 
	C1857.047485,108.961761 1864.171875,126.129105 1870.963867,143.415939 
	C1871.321655,144.326706 1871.876709,145.159973 1872.706055,146.716812 
	C1875.561890,138.496109 1878.203979,130.890381 1880.939697,122.899460 
z"/>
<path fill="#020202" opacity="1.000000" stroke="none" 
	d="
M1757.000122,125.000000 
	C1756.955444,144.988174 1756.898315,164.476318 1756.880981,183.964523 
	C1756.878784,186.458145 1756.831543,188.994949 1757.246216,191.436905 
	C1758.144165,196.725891 1761.341797,199.694046 1766.745972,199.953888 
	C1770.715820,200.144791 1774.715332,199.614166 1778.703979,199.547867 
	C1782.008911,199.492905 1785.322754,199.549011 1788.622925,199.731277 
	C1793.285522,199.988754 1795.754639,203.135086 1795.851440,207.232513 
	C1796.208496,222.360703 1796.382568,237.505264 1796.058105,252.631500 
	C1795.928833,258.655365 1793.331421,260.831909 1787.068726,261.026855 
	C1774.092041,261.430786 1761.101074,261.365723 1748.116089,261.512787 
	C1735.796387,261.652313 1723.476807,261.801819 1711.157471,261.974030 
	C1700.271118,262.126190 1695.130493,257.901031 1693.553955,247.200226 
	C1693.143921,244.417282 1693.126099,241.559570 1693.124023,238.736038 
	C1693.089233,191.434204 1693.116943,144.132294 1693.058594,96.830513 
	C1693.036133,78.646187 1697.387939,74.103935 1715.739624,74.211472 
	C1723.891479,74.259239 1732.081421,74.445709 1740.180176,75.283577 
	C1751.021851,76.405212 1755.320068,80.788651 1756.023071,91.561417 
	C1756.738037,102.515526 1756.705200,113.518448 1757.000122,125.000000 
z"/>
<path fill="#FEFEFE" opacity="1.000000" stroke="none" 
	d="
M149.591278,169.524811 
	C140.869049,181.056625 128.784454,185.518967 115.130714,187.814896 
	C115.002975,186.503510 114.775375,185.265915 114.777718,184.028748 
	C114.825836,158.563110 114.874031,133.097443 114.984718,107.632034 
	C115.019165,99.706139 118.493423,97.122360 126.173843,99.581955 
	C142.297531,104.745445 158.679779,117.723228 157.486298,143.870758 
	C157.068054,153.034332 155.098648,161.607880 149.591278,169.524811 
z"/>
<path fill="#FDFDFD" opacity="1.000000" stroke="none" 
	d="
M1474.109863,134.046417 
	C1479.327515,157.366531 1463.543579,181.026855 1439.226929,186.858017 
	C1432.053589,188.578201 1429.839478,187.076843 1428.737061,179.678925 
	C1428.541748,178.369263 1428.396484,177.030731 1428.432739,175.711197 
	C1429.001709,155.111786 1429.713013,134.515701 1430.163208,113.913841 
	C1430.496948,98.640068 1436.406982,94.985962 1449.846436,102.275795 
	C1462.490234,109.134094 1470.471313,119.706657 1474.109863,134.046417 
z"/>
<path fill="#FDFDFD" opacity="1.000000" stroke="none" 
	d="
M940.652710,177.128998 
	C936.880005,161.609344 943.161499,149.579544 954.159180,140.565125 
	C968.015564,129.207535 993.583191,134.690262 1003.469971,149.698929 
	C1016.585388,169.608871 1005.146667,188.266235 990.983948,196.528046 
	C972.353516,207.396149 947.869873,197.979874 940.652710,177.128998 
z"/>
<path fill="#F7F7F7" opacity="1.000000" stroke="none" 
	d="
M2189.975342,146.734009 
	C2187.286133,155.479706 2179.733887,154.643234 2173.798828,156.384445 
	C2172.945068,151.028320 2172.132568,146.153625 2171.399658,141.266968 
	C2170.689697,136.535843 2172.510498,134.364914 2177.256104,134.150375 
	C2185.590332,133.773590 2188.470947,136.527405 2189.975342,146.734009 
z"/>
</svg>