<svg version="1.1" id="Layer_1" xmlns="http://www.w3.org/2000/svg" xmlns:xlink="http://www.w3.org/1999/xlink" x="0px" y="0px"
	 width="100%" viewBox="0 0 800 800" enable-background="new 0 0 800 800" xml:space="preserve">
<path fill="#000000" opacity="1.000000" stroke="none" 
	d="
M524.781860,247.624146 
	C537.309082,244.111038 549.448120,240.714020 562.969971,236.930069 
	C562.798767,332.079285 563.487183,426.395111 562.473877,521.670105 
	C496.545746,502.775360 439.924896,515.625977 394.283630,567.902771 
	C392.542328,567.265930 391.749023,565.502686 390.579956,564.138184 
	C365.744171,535.150330 333.939301,519.413025 296.331512,515.217896 
	C274.291199,512.759277 252.417816,513.706604 231.287003,521.480713 
	C227.954803,522.706665 226.573853,521.429321 226.682800,518.058044 
	C226.720459,516.892761 226.679031,515.725098 226.678970,514.558533 
	C226.673965,424.730530 226.666550,334.902557 226.681610,245.074554 
	C226.681992,242.787567 226.295181,240.422714 227.274155,238.382965 
	C228.968491,237.486069 230.396011,237.960098 231.851288,238.359375 
	C268.772888,248.489182 305.823578,258.206573 341.637726,271.942322 
	C354.402863,276.838104 366.790833,282.552277 378.672211,289.384094 
	C382.168640,291.394562 383.437714,293.706329 383.416199,297.719696 
	C383.258087,327.217072 383.323242,356.715729 383.343842,386.213959 
	C383.345337,388.324738 382.963104,390.533020 384.448761,392.916718 
	C391.247040,391.241150 397.575348,388.352356 403.962921,385.738495 
	C406.623230,384.649872 405.737885,381.656769 405.740814,379.431702 
	C405.776062,352.766785 405.869690,326.100525 405.607391,299.437958 
	C405.559570,294.578156 407.286316,291.874573 411.291077,289.470001 
	C426.669556,280.236450 443.211578,273.664703 460.026672,267.726288 
	C481.221893,260.240936 502.765381,253.846664 524.781860,247.624146 
M473.392395,444.747803 
	C475.302826,444.172455 477.232452,443.653564 479.120239,443.011658 
	C485.877411,440.713928 485.870239,440.491791 481.562653,434.835876 
	C471.611176,421.769653 465.414581,407.327545 465.760620,390.571320 
	C465.904785,383.591522 465.292694,383.128723 458.844360,385.629578 
	C430.757263,396.522675 402.691010,407.469696 374.586945,418.318817 
	C357.194366,425.032898 339.771301,431.670074 322.307831,438.197083 
	C318.092926,439.772430 316.791168,441.971588 317.992371,446.545502 
	C320.574127,456.376312 325.392181,464.638580 333.028778,471.333649 
	C334.844940,472.925873 337.413086,473.656586 338.747253,475.892944 
	C338.306091,476.517822 338.115906,477.055817 337.738525,477.283112 
	C322.642395,486.376190 306.703186,491.158447 289.199524,485.580353 
	C277.441498,481.833344 269.741241,473.698090 268.032410,461.373535 
	C266.348694,449.230621 271.676697,439.709747 281.604919,432.696259 
	C287.087708,428.823120 293.229492,426.199280 299.276855,423.425079 
	C314.160339,416.597290 327.915039,408.367615 336.838531,393.976410 
	C338.296265,391.625519 339.891510,391.725159 341.691559,393.391510 
	C344.052032,395.576691 346.352631,397.826477 349.287994,400.630157 
	C350.234741,393.620392 347.874939,388.446411 344.209656,383.862457 
	C342.393097,381.590607 341.824524,379.312347 341.741516,376.547241 
	C341.609528,372.150238 343.745483,371.742859 347.070679,373.170105 
	C349.739685,374.315735 352.341156,375.618683 355.444214,377.072815 
	C353.446930,366.735992 344.639679,362.430908 338.969666,355.655975 
	C343.839539,350.800262 350.027863,351.247345 356.364807,349.653320 
	C348.752686,343.590637 339.975006,343.949097 330.963623,341.887909 
	C337.071198,335.656860 345.161530,333.580505 349.118164,326.628571 
	C353.205353,319.447205 354.271881,309.250031 351.081543,304.757446 
	C344.852875,321.352325 331.345917,332.097778 318.735718,330.244873 
	C321.555267,323.795837 326.396851,317.770447 323.460144,309.305206 
	C322.462097,310.354645 321.854584,310.726715 321.640717,311.257416 
	C316.895660,323.031586 308.289612,330.507751 296.231720,334.131866 
	C294.367645,334.692108 292.612976,335.549438 292.156769,337.448669 
	C290.668274,343.645660 285.601990,345.400269 280.525269,347.144531 
	C276.751526,348.441071 272.941315,349.650299 269.096466,350.714600 
	C266.453949,351.446075 265.000000,352.803406 265.479828,355.685211 
	C265.774261,357.453522 265.537079,359.880127 267.676361,360.291443 
	C270.658264,360.864716 273.726257,361.637543 276.728363,359.442139 
	C282.740692,355.045349 289.997345,356.140656 297.507019,354.424957 
	C295.357452,359.912354 291.934723,363.311066 290.093567,367.498901 
	C287.547638,373.289673 281.290649,370.142151 277.490356,373.158752 
	C278.252441,375.384216 280.116638,376.303131 281.653717,377.440796 
	C287.704620,381.919403 288.363403,382.230042 291.871735,375.877808 
	C298.848328,363.245728 312.079681,365.092285 323.234070,360.500671 
	C324.504333,368.105408 323.330566,374.447815 320.597168,380.670898 
	C315.814819,391.558777 306.764038,397.812225 296.808716,403.263489 
	C288.190918,407.982361 278.858826,411.299103 270.631012,416.766998 
	C253.652969,428.049957 245.474670,446.179535 249.203293,464.330322 
	C253.360977,484.569794 267.065765,497.924103 288.052216,501.284515 
	C302.390686,503.580444 316.405182,501.535614 329.327209,494.782806 
	C342.861359,487.710052 357.430267,483.487244 371.736633,478.597839 
	C405.281738,467.133270 438.982452,456.124054 473.392395,444.747803 
M494.529816,386.187683 
	C497.967407,381.568939 502.526794,379.284393 508.316223,379.590302 
	C517.935486,380.098602 528.801331,389.805298 530.193970,399.369904 
	C530.797241,403.513000 530.916687,407.721344 527.949951,411.274872 
	C525.166199,414.609192 520.815979,415.363831 517.229858,412.774200 
	C514.309387,410.665253 511.851044,408.279663 514.181580,404.030151 
	C516.566162,399.681824 515.664368,396.445038 512.094666,394.802032 
	C508.692230,393.236084 505.519196,395.067749 504.189911,399.978149 
	C502.015442,408.010834 505.859406,414.206909 511.159637,419.611725 
	C521.167786,429.817261 534.673950,426.331085 538.606262,412.648773 
	C543.799011,394.581146 528.737915,371.703918 510.040527,369.258453 
	C495.187622,367.315826 484.369965,374.738831 480.813324,389.322388 
	C479.092102,396.379913 480.389648,403.224030 482.422180,409.975037 
	C488.421051,429.900208 508.696686,449.191956 528.041321,448.021698 
	C525.737732,446.724091 523.887512,445.719330 522.073059,444.653656 
	C510.007111,437.566986 500.384064,428.023041 494.141022,415.476440 
	C489.468475,406.086029 488.647247,396.361023 494.529816,386.187683 
M500.755280,299.817383 
	C498.039581,298.211945 495.274323,296.683167 492.627441,294.971313 
	C491.121063,293.997070 489.899872,293.361603 488.178894,294.680237 
	C482.730377,298.855103 476.327240,301.354797 470.310699,304.524933 
	C467.334778,306.092926 465.917084,308.098236 466.046570,311.605072 
	C466.303833,318.575043 466.353180,325.564148 466.141876,332.534851 
	C466.042450,335.815125 467.196411,337.696655 470.038849,339.212830 
	C474.282776,341.476562 478.609497,343.766663 482.361084,346.729279 
	C487.981873,351.167969 492.879883,351.349884 498.478638,346.638367 
	C503.263062,342.612061 511.206421,341.746002 514.026917,336.583954 
	C516.953308,331.228180 514.286743,323.856506 515.025269,317.450134 
	C515.914001,309.740417 513.677368,304.600616 505.662750,302.694275 
	C504.123871,302.328247 502.799805,301.059326 500.755280,299.817383 
M389.267761,531.277466 
	C390.937012,535.381042 391.920441,539.777893 394.446411,543.952209 
	C395.028839,543.091003 395.471252,542.602722 395.729279,542.031189 
	C402.818298,526.330017 405.488342,509.738129 405.683838,492.642517 
	C405.719238,489.548157 404.024933,488.826996 401.487854,489.605774 
	C396.887695,491.017883 392.379639,492.734528 387.766388,494.098236 
	C384.278290,495.129364 383.057190,497.265198 383.363770,500.777802 
	C384.246124,510.888336 385.880188,520.842346 389.267761,531.277466 
M294.548157,467.843994 
	C300.143616,476.623535 303.663025,477.844940 311.943359,474.150757 
	C314.444733,473.034790 315.449921,471.571503 313.846649,469.167725 
	C309.281860,462.323639 306.563904,454.681580 304.377808,446.892212 
	C291.644318,449.036713 289.342529,452.814850 292.922455,464.480804 
	C293.211578,465.423035 293.770660,466.282440 294.548157,467.843994 
z"/>
<path fill="#000000" opacity="1.000000" stroke="none" 
	d="
M140.426620,354.547485 
	C145.376144,353.963898 145.043610,357.204254 145.031479,360.035889 
	C144.932266,383.178558 148.571136,405.737000 155.143829,427.904541 
	C166.261871,465.402008 184.514572,498.835724 211.235489,527.520630 
	C215.969589,532.602722 216.074615,532.649170 210.996613,537.682983 
	C193.964966,554.566406 176.845474,571.361206 159.830154,588.261047 
	C155.817032,592.246887 152.127243,596.556274 148.201385,600.632751 
	C144.922714,604.037231 141.040146,604.757385 139.111801,602.225159 
	C136.443802,598.721741 137.934525,595.666321 140.687134,592.951416 
	C152.428009,581.371704 164.066772,569.685181 175.983063,558.288879 
	C179.086456,555.320923 179.276550,553.383423 176.441681,550.131348 
	C156.828430,527.632019 140.803177,502.786163 128.704880,475.481934 
	C117.306862,449.758179 109.800186,422.931793 106.635239,394.939880 
	C105.776421,387.344116 105.025581,379.734955 104.336952,372.121826 
	C104.079788,369.278717 103.028114,367.265259 100.530937,365.594330 
	C96.526077,362.914520 92.941711,359.613495 88.996483,356.835083 
	C86.068161,354.772827 85.339325,352.647736 88.690475,350.802338 
	C102.535622,343.178406 105.065323,330.505371 107.120209,316.007507 
	C113.513397,270.901550 131.065201,229.985153 157.396744,192.810104 
	C163.862762,183.681305 170.927902,175.044357 178.500900,166.856766 
	C181.768326,163.324158 181.477646,161.081345 178.248672,157.843887 
	C166.017914,145.581024 154.009796,133.096161 141.911896,120.700691 
	C139.071136,117.790047 135.764145,114.847389 139.062180,110.454224 
	C141.217712,107.582932 144.924759,109.098610 149.512802,113.712502 
	C171.594040,135.918167 191.403122,160.274460 214.082458,181.899780 
	C217.709396,185.358154 215.399231,187.231476 213.178833,189.638458 
	C193.497223,210.974136 176.892563,234.392944 165.441177,261.196747 
	C154.318802,287.230438 146.669861,314.170837 145.350922,342.628937 
	C145.192734,346.042297 143.923096,347.384674 140.536591,347.329132 
	C133.207718,347.208923 125.867104,347.510712 118.547401,347.225952 
	C113.527435,347.030640 110.070572,349.281281 105.929260,353.856842 
	C118.050179,354.105652 129.035812,354.331177 140.426620,354.547485 
z"/>
<path fill="#000000" opacity="1.000000" stroke="none" 
	d="
M640.593506,316.377502 
	C636.098694,294.177521 629.782776,272.982910 620.131653,252.917679 
	C609.080200,229.941330 595.077698,208.960571 577.082031,190.751831 
	C571.855469,185.463364 571.938293,185.319351 577.121948,180.219955 
	C598.746338,158.946884 617.658936,135.152542 639.043030,113.657104 
	C640.096924,112.597725 641.032410,111.311989 642.285522,110.582817 
	C644.616882,109.226273 647.502136,107.924225 649.647583,110.234207 
	C651.945862,112.708580 651.571594,115.810181 649.171387,118.334854 
	C645.843445,121.835510 642.425537,125.250710 639.046143,128.702469 
	C629.721069,138.227173 620.514343,147.872147 611.010681,157.215118 
	C607.394775,160.769882 607.400330,163.363419 610.803223,167.110718 
	C627.012390,184.960205 640.653015,204.694077 651.793640,226.037231 
	C668.017029,257.118256 678.977112,289.971008 683.376831,324.875458 
	C683.730225,327.679413 684.152588,330.474792 684.499756,333.279480 
	C684.879883,336.350494 685.943848,338.853699 688.583862,340.885895 
	C693.434143,344.619568 697.985107,348.742157 703.018494,353.005554 
	C700.054016,356.916840 696.446838,359.911926 692.529175,362.153900 
	C686.394470,365.664520 684.778259,370.956238 684.316772,377.440948 
	C679.980774,438.359314 658.729858,492.690186 620.518494,540.360291 
	C616.982483,544.771545 613.421448,549.162842 609.560425,553.949646 
	C612.555664,558.650269 616.982971,562.218262 620.868652,566.205078 
	C629.240234,574.794678 637.855652,583.146240 646.324829,591.641541 
	C647.844238,593.165588 649.322266,594.793396 650.492188,596.586731 
	C651.837402,598.648804 651.234131,600.790039 649.753540,602.598755 
	C648.265442,604.416565 646.337708,604.368591 644.291870,603.615662 
	C642.519226,602.963318 641.070496,601.879395 639.850098,600.478699 
	C621.219604,579.095764 600.134033,560.125671 580.324829,539.901367 
	C579.858459,539.425232 579.377930,538.962891 578.913696,538.484802 
	C571.910217,531.272461 573.078552,532.848633 578.757935,526.517883 
	C610.560730,491.067932 630.662720,449.860840 639.705688,403.147736 
	C642.467285,388.882355 644.126404,374.532593 643.976746,360.010254 
	C643.931152,355.583740 645.320007,353.772614 650.041077,353.965332 
	C658.525635,354.311676 667.035156,354.100525 675.533325,354.020691 
	C677.272522,354.004364 679.201599,354.575623 681.078857,352.837860 
	C678.128906,349.397858 674.716614,347.241791 670.097534,347.255768 
	C662.931763,347.277405 655.764343,347.192261 648.601074,347.332184 
	C645.467468,347.393372 643.949768,346.120056 643.800903,343.032806 
	C643.375549,334.214325 642.000488,325.508545 640.593506,316.377502 
z"/>
<path fill="#000000" opacity="1.000000" stroke="none" 
	d="
M525.070251,572.044739 
	C539.874695,562.589417 553.449829,552.145935 565.764526,540.117432 
	C567.825989,538.103943 569.319580,538.349426 571.201965,540.269897 
	C578.664978,547.883972 586.146057,555.482788 593.757996,562.947083 
	C596.324097,565.463379 595.891846,567.132751 593.434692,569.452942 
	C558.146545,602.773499 517.540405,626.643066 470.481567,639.246704 
	C452.432800,644.080688 434.151062,647.485107 415.563080,649.272034 
	C413.637054,649.457214 412.328918,649.817932 411.314148,651.901245 
	C407.761932,659.194031 401.393555,664.296936 396.231506,670.338745 
	C394.463470,672.408142 392.651184,671.554382 391.354492,669.522644 
	C387.079193,662.823669 379.484497,658.915771 376.180756,651.366699 
	C375.478119,649.761047 373.522003,650.245483 372.096313,650.093506 
	C347.674744,647.490417 323.823090,642.367554 300.589447,634.334412 
	C264.379944,621.814514 232.022476,602.776428 203.437668,577.296692 
	C200.454056,574.637268 197.632050,571.793823 194.606812,569.184448 
	C192.286682,567.183350 192.367645,565.655457 194.589172,563.504944 
	C202.008316,556.322998 209.408676,549.106750 216.481995,541.589111 
	C219.639664,538.233154 221.644470,538.866028 224.623688,541.712463 
	C243.551682,559.796814 264.780334,574.677002 288.410797,585.939941 
	C317.060394,599.595032 347.161011,608.249023 378.889435,610.793518 
	C391.091827,611.772034 391.107544,611.684448 391.148254,624.121948 
	C391.172821,631.619690 391.197418,639.117737 391.155457,646.615234 
	C391.139771,649.419922 391.485474,651.938171 394.686584,653.230103 
	C397.791321,651.206787 398.668365,648.137695 398.607391,644.666687 
	C398.449432,635.675476 398.355591,626.680908 398.009674,617.696350 
	C397.857452,613.742310 398.692474,611.756470 403.321320,611.428101 
	C429.549347,609.567200 454.951965,603.750000 479.550507,594.481262 
	C495.335114,588.533630 510.283813,580.855652 525.070251,572.044739 
z"/>
<path fill="#000000" opacity="1.000000" stroke="none" 
	d="
M408.602112,110.458183 
	C397.728058,109.980537 397.846832,112.294640 397.920898,99.556290 
	C397.974182,90.394814 397.842072,81.232384 397.839050,72.070366 
	C397.838074,69.082680 397.308411,66.429207 394.214630,64.884911 
	C391.178558,66.175858 391.223785,68.884697 391.222595,71.551201 
	C391.217590,82.712669 391.128815,93.875481 391.282898,105.034874 
	C391.335144,108.819572 390.130371,110.270485 386.134064,110.358780 
	C343.473053,111.301277 304.513458,124.683044 267.953064,145.944733 
	C252.776459,154.770676 238.846222,165.310928 225.940811,177.175400 
	C222.860580,180.007172 220.917664,179.728622 218.166534,176.790787 
	C212.023163,170.230499 205.497482,164.030182 199.238373,157.575729 
	C193.697174,151.861572 193.766342,151.800644 199.480789,146.483185 
	C215.159317,131.893890 232.360901,119.423843 251.039856,108.926605 
	C278.395874,93.553024 307.360168,82.476196 338.126282,76.351303 
	C349.849518,74.017448 361.753784,72.585472 373.587067,70.819542 
	C375.485809,70.536179 377.555176,70.527611 377.313171,67.933548 
	C376.954926,64.094048 379.332672,61.862045 381.611328,59.396908 
	C384.888275,55.851791 388.069397,52.209080 391.126404,48.472988 
	C392.969116,46.220963 394.628693,45.546848 396.808899,47.955227 
	C401.389648,53.015450 406.027740,58.023731 410.610321,63.082302 
	C411.040039,63.556644 411.528595,64.247925 411.506805,64.820061 
	C411.237488,71.886658 416.310089,71.313194 420.991364,71.778336 
	C451.550262,74.814766 480.803680,82.935127 509.015137,94.895752 
	C538.233643,107.283340 564.844116,123.842522 588.425964,145.159180 
	C589.908142,146.498962 591.291931,147.951294 592.812805,149.243835 
	C595.001709,151.104095 594.685486,152.686630 592.778137,154.633179 
	C585.091187,162.478073 576.922241,169.853348 569.837158,178.289062 
	C567.215332,181.410690 565.325134,178.511307 563.660278,177.013428 
	C552.611877,167.073029 540.908630,157.983414 528.234741,150.237701 
	C494.855743,129.837952 458.917206,116.467377 420.005615,111.474434 
	C416.375702,111.008667 412.711243,110.812408 408.602112,110.458183 
z"/>
<path fill="#000000" opacity="1.000000" stroke="none" 
	d="
M389.902924,118.456207 
	C399.873108,116.475464 408.658722,120.856094 413.966614,130.143616 
	C418.440247,137.971390 417.505402,148.012161 410.965240,154.634735 
	C407.834717,157.804733 406.861511,161.046783 406.899567,165.279633 
	C407.061188,183.262787 406.970123,201.248108 407.007874,219.232559 
	C407.020752,225.364975 407.338104,225.635193 413.558014,225.677734 
	C416.222321,225.695953 418.891602,225.578751 421.550232,225.702927 
	C426.780212,225.947189 431.169495,225.621399 435.025116,220.639359 
	C439.379669,215.012604 448.321533,215.415115 454.029572,220.122681 
	C460.454681,225.421631 462.071564,234.381775 457.848145,241.284271 
	C452.532288,249.972305 441.989136,251.723328 434.290039,244.982956 
	C432.142822,243.103134 430.073639,242.137756 427.189941,242.151291 
	C405.209351,242.254532 383.228088,242.247147 361.247131,242.212646 
	C358.491272,242.208328 356.230255,242.744965 353.963776,244.632523 
	C346.953644,250.470734 337.434418,249.855545 332.575439,243.582581 
	C326.758850,236.073318 327.482544,225.755310 334.215424,220.200806 
	C341.080688,214.537094 349.919128,215.815262 356.007446,223.521408 
	C357.175140,224.999420 358.370331,225.686386 360.176971,225.676605 
	C366.171692,225.644135 372.167847,225.594864 378.161133,225.694168 
	C381.375946,225.747421 382.653473,224.274185 382.649261,221.168671 
	C382.622284,201.352203 382.639099,181.535690 382.660858,161.719193 
	C382.662994,159.767334 381.948547,158.317535 380.511749,156.918976 
	C366.675568,143.451202 371.209534,124.224449 389.902924,118.456207 
z"/>
<path fill="#000000" opacity="1.000000" stroke="none" 
	d="
M501.404236,744.351990 
	C494.298096,752.005798 485.721008,755.342285 475.741241,755.347717 
	C471.910614,755.349792 468.050690,755.044983 464.256561,755.416138 
	C459.227325,755.908081 457.952698,753.603943 458.032166,749.055237 
	C458.224152,738.066223 458.009979,727.070740 458.136292,716.079895 
	C458.231384,707.809631 457.464661,699.495117 458.970367,690.633057 
	C469.959045,691.458069 481.026062,688.417175 491.453156,693.664429 
	C509.975800,702.985535 516.045410,726.978943 501.404236,744.351990 
M477.811646,729.077515 
	C477.583344,731.178345 476.952545,733.347900 478.763458,735.099792 
	C485.508392,733.975769 489.746704,729.729248 490.405884,723.497986 
	C490.918213,718.654968 487.575317,713.193054 482.892273,711.089050 
	C479.894897,709.742371 478.065094,710.201843 478.040894,713.910095 
	C478.009552,718.710815 477.951996,723.511414 477.811646,729.077515 
z"/>
<path fill="#000000" opacity="1.000000" stroke="none" 
	d="
M132.428284,696.451843 
	C143.639969,705.393311 148.048294,716.763611 144.906754,730.283203 
	C141.788528,743.702454 132.597855,751.821716 119.284401,754.697754 
	C111.473076,756.385254 103.416153,755.213623 95.755844,755.256409 
	C94.298477,753.627686 94.680687,752.058044 94.678322,750.613220 
	C94.648575,732.449036 94.751274,714.283936 94.586220,696.121216 
	C94.549858,692.119202 95.615128,690.350037 99.893448,690.587341 
	C105.209648,690.882080 110.554848,690.674866 115.887352,690.649353 
	C121.960114,690.620239 127.237831,692.875793 132.428284,696.451843 
M125.860764,718.734070 
	C124.668869,714.785400 121.961433,712.262695 118.222511,710.795837 
	C116.540848,710.136169 114.499382,710.011292 114.435585,712.360046 
	C114.231209,719.883850 114.359657,727.416687 114.359657,735.029236 
	C123.389244,733.764160 127.453903,728.048401 125.860764,718.734070 
z"/>
<path fill="#000000" opacity="1.000000" stroke="none" 
	d="
M187.985840,316.286499 
	C189.362869,311.398193 190.497803,306.872589 191.958664,302.454712 
	C192.843124,299.779938 192.000656,298.346436 189.554825,297.438629 
	C185.498886,295.933136 181.441452,294.429443 177.414719,292.848419 
	C174.841629,291.838196 172.920975,290.213654 174.276413,287.153198 
	C175.579285,284.211487 178.093903,284.329468 180.655075,285.292267 
	C184.393951,286.697845 188.184341,288.004364 191.806900,289.670258 
	C195.075394,291.173370 196.726151,290.052338 197.910110,286.994080 
	C199.531677,282.805481 201.222275,278.634064 203.116989,274.564087 
	C204.384415,271.841583 205.958908,268.616333 209.786407,270.532318 
	C213.339920,272.311157 212.448547,275.395020 211.004898,278.302643 
	C208.503983,283.339569 206.031769,288.390747 203.605957,293.317230 
	C205.946762,296.094788 208.987991,296.221222 211.474808,297.408539 
	C214.030319,298.628632 215.097000,300.334198 213.975235,302.983765 
	C212.897552,305.529236 210.815948,305.600311 208.522034,304.817444 
	C206.182800,304.019043 203.838440,303.235779 201.109222,302.315338 
	C197.451538,309.850861 196.183319,317.693298 194.722015,325.459869 
	C193.430328,332.325043 192.263748,339.209656 191.943954,346.219696 
	C191.759811,350.256500 193.382019,352.072998 197.460739,351.971680 
	C201.620361,351.868347 205.789993,351.932495 209.948288,352.098145 
	C212.494156,352.199585 214.743774,353.326996 214.733200,356.171112 
	C214.721573,359.299805 212.392578,360.278107 209.571518,360.288116 
	C205.240906,360.303497 200.910233,360.312561 196.579773,360.349457 
	C193.444290,360.376160 191.148727,361.779266 191.478821,365.093964 
	C193.044464,380.815033 195.346725,396.412964 200.481018,411.447693 
	C200.571915,411.713867 200.948013,411.882690 201.285614,412.180328 
	C203.955750,412.093811 206.266449,410.661102 208.688568,409.656952 
	C211.375641,408.542969 213.220856,409.264648 214.408890,411.805573 
	C215.658554,414.478302 213.875824,415.829865 211.948425,416.998016 
	C209.429367,418.524841 206.266983,418.873108 203.987701,421.258270 
	C205.537689,426.577301 208.221375,431.361633 210.801224,436.176453 
	C212.306534,438.985840 212.906784,441.781891 209.797241,443.582977 
	C206.331161,445.590607 204.611450,442.907501 203.356964,440.206787 
	C201.463974,436.131592 199.489655,432.067535 197.998734,427.840454 
	C196.775070,424.371063 195.018433,424.040741 191.978729,425.475525 
	C188.219650,427.249786 184.301056,428.684052 180.467865,430.304230 
	C177.990448,431.351379 175.380371,432.023651 174.013367,429.020569 
	C172.636032,425.994843 174.258255,424.038239 177.199631,422.864441 
	C181.373627,421.198730 185.468872,419.336792 189.619110,417.610016 
	C192.184647,416.542511 193.111069,414.979523 192.179016,412.122681 
	C187.353943,397.333618 185.696945,381.933502 183.810791,366.602173 
	C183.257538,362.104950 181.494156,360.080963 176.835526,360.252411 
	C170.681473,360.478943 164.511780,360.291290 158.348907,360.262939 
	C155.706024,360.250763 153.011917,359.889709 152.846588,356.583435 
	C152.671005,353.072144 155.316940,352.158966 158.221222,352.105133 
	C164.715637,351.984772 171.212616,351.926239 177.707886,351.962646 
	C181.305222,351.982788 183.380829,350.535889 183.651337,346.796417 
	C184.384003,336.668549 186.079178,326.673553 187.985840,316.286499 
z"/>
<path fill="#000000" opacity="1.000000" stroke="none" 
	d="
M602.576599,325.596680 
	C604.080322,332.696411 605.223694,339.443726 605.240967,346.271362 
	C605.252136,350.708344 607.199097,352.123505 611.329163,352.034546 
	C617.657349,351.898254 623.992676,352.005249 630.323364,352.108704 
	C633.070312,352.153595 636.049255,352.445984 636.093689,356.108917 
	C636.141907,360.081696 633.115112,360.313782 630.099365,360.306244 
	C623.767334,360.290375 617.434631,360.359558 611.103271,360.292145 
	C607.351746,360.252228 605.460632,361.420776 605.194153,365.712311 
	C604.232727,381.191528 602.100769,396.522186 596.945129,411.247070 
	C595.595886,415.100677 596.592102,417.186584 600.383362,418.454926 
	C604.168823,419.721344 607.835632,421.338409 611.579895,422.733337 
	C614.728027,423.906189 616.404907,426.015625 614.994690,429.270752 
	C613.623108,432.436829 611.011536,431.459625 608.583984,430.460358 
	C604.580688,428.812531 600.529419,427.278107 596.555420,425.563568 
	C593.843323,424.393402 592.254211,425.038910 591.202148,427.866211 
	C589.693542,431.920410 587.947388,435.888702 586.225159,439.860046 
	C585.013000,442.655121 583.752136,445.880249 579.781433,444.294891 
	C575.692871,442.662445 576.473999,439.576385 578.065308,436.415649 
	C580.011292,432.550385 581.774719,428.593384 583.712708,424.723877 
	C585.042542,422.068756 584.480591,420.395477 581.609924,419.355530 
	C579.582764,418.621155 577.654785,417.595673 575.723816,416.618683 
	C574.198914,415.847198 572.675232,414.924744 573.348999,412.816620 
	C574.025146,410.701141 575.477051,409.291229 577.801575,409.639038 
	C579.754944,409.931305 581.733582,410.467499 583.536316,411.267151 
	C587.286499,412.930695 588.794678,411.529602 589.905518,407.845093 
	C594.008118,394.237213 596.094116,380.290466 597.607178,366.216309 
	C598.042786,362.164246 596.459839,360.269043 592.360474,360.319183 
	C588.029236,360.372192 583.695618,360.310303 579.364075,360.236267 
	C576.807129,360.192535 574.598145,359.470215 574.629883,356.360870 
	C574.659851,353.430145 576.679932,352.286804 579.262024,352.178253 
	C583.588501,351.996429 587.923218,351.943359 592.254211,351.953644 
	C596.446655,351.963593 597.983154,349.623077 597.553650,345.862244 
	C596.080322,332.962494 593.747253,320.226715 590.187378,307.717010 
	C589.001648,303.550537 587.185608,301.607971 582.857422,304.097626 
	C581.872131,304.664398 580.682739,304.997620 579.547791,305.156494 
	C577.441528,305.451385 575.415771,305.152557 574.733032,302.715790 
	C574.117065,300.517120 575.461853,299.574646 577.321899,298.603821 
	C586.085876,294.029510 586.134094,293.778870 581.945984,284.601562 
	C580.703186,281.878235 579.179565,279.283997 577.903259,276.574707 
	C576.840271,274.318451 577.101562,272.184357 579.587280,271.128174 
	C581.975464,270.113495 584.195129,270.435150 585.392517,273.193390 
	C587.446777,277.925751 589.616455,282.612457 591.512634,287.407349 
	C592.612610,290.189148 594.028870,290.980957 596.817139,289.587036 
	C600.090454,287.950714 603.498779,286.580688 606.869385,285.143921 
	C609.514221,284.016602 612.274719,283.516418 613.795959,286.637299 
	C615.372559,289.871735 613.145935,291.567657 610.496338,292.742584 
	C606.844421,294.362061 603.197998,296.003723 599.482300,297.466095 
	C596.771362,298.533020 596.204224,300.072144 597.021057,302.899200 
	C599.143494,310.244751 601.278076,317.603516 602.576599,325.596680 
z"/>
<path fill="#000000" opacity="1.000000" stroke="none" 
	d="
M362.661224,704.923706 
	C375.335266,711.146179 381.394257,722.228943 379.219574,734.660278 
	C377.251648,745.909668 366.346466,755.453247 353.460571,756.046814 
	C342.463165,756.553467 333.219788,752.387756 327.517944,742.411560 
	C322.041931,732.830505 322.389893,723.170227 328.904236,714.302002 
	C335.682861,705.073975 345.088623,701.436340 356.481171,703.411682 
	C358.437775,703.750977 360.353485,704.326111 362.661224,704.923706 
M346.452271,721.774231 
	C341.611450,726.332092 341.003540,731.688599 344.876526,735.658691 
	C348.861023,739.743042 355.255524,739.652527 359.101654,735.358765 
	C362.135345,731.971924 362.548401,728.236511 360.009796,724.379089 
	C357.371460,720.370239 352.834930,719.362183 346.452271,721.774231 
z"/>
<path fill="#000000" opacity="1.000000" stroke="none" 
	d="
M234.548660,715.738770 
	C243.969528,700.888245 269.172119,700.510437 278.125336,709.757507 
	C275.812347,713.931274 271.881927,716.841125 268.697235,720.351990 
	C267.079926,722.134949 265.244080,720.536560 263.590668,720.067627 
	C257.482544,718.335327 251.645401,720.252319 249.311966,725.045776 
	C247.678040,728.402405 247.597702,731.876526 249.874908,734.987793 
	C252.689880,738.833923 256.619476,739.510742 261.765167,738.193726 
	C259.595367,737.152344 258.365051,736.040955 259.327606,733.771301 
	C260.094055,731.963867 260.404205,729.929016 260.697937,727.962402 
	C261.233215,724.378845 263.207489,722.829407 266.806488,722.976929 
	C270.800598,723.140747 274.804016,723.064697 278.800446,723.188477 
	C280.990570,723.256287 282.699066,723.972595 282.714264,726.664673 
	C282.760315,734.820129 282.817230,742.976196 282.971466,751.130127 
	C283.041077,754.808228 281.768433,756.384521 277.739014,756.470093 
	C270.305481,756.627869 262.962769,755.572449 255.559341,755.345703 
	C235.518661,754.732178 224.136719,732.730713 234.548660,715.738770 
z"/>
<path fill="#000000" opacity="1.000000" stroke="none" 
	d="
M229.204254,705.084961 
	C229.519806,716.132019 230.191055,726.792480 229.749222,737.406555 
	C229.509796,743.158325 230.143066,748.999084 229.133453,755.001892 
	C224.138519,755.412476 218.870636,756.755798 214.777039,754.534241 
	C210.725800,752.335571 209.935013,746.545715 206.324493,742.322449 
	C206.324493,744.783325 206.484756,746.575317 206.284805,748.326233 
	C206.021545,750.631409 207.656372,754.127319 204.503159,754.885864 
	C200.379761,755.877869 195.927902,755.994141 191.724640,754.631714 
	C190.738998,754.312256 190.747375,752.960815 190.746414,751.967529 
	C190.731216,736.169250 190.735733,720.370972 190.735733,704.657227 
	C202.536575,701.005371 206.017990,702.892151 212.683990,715.986206 
	C212.683990,713.187561 212.761795,710.386047 212.661713,707.591003 
	C212.565247,704.896484 213.615753,703.431091 216.428513,703.706970 
	C220.644989,704.120605 225.014496,702.543640 229.204254,705.084961 
z"/>
<path fill="#000000" opacity="1.000000" stroke="none" 
	d="
M419.313293,707.158081 
	C419.335297,721.642700 419.208099,735.641968 419.420349,749.636047 
	C419.484039,753.837097 418.252686,754.877502 413.922302,755.592224 
	C403.794098,757.263733 400.642883,750.559448 396.292175,743.574768 
	C396.292175,746.057678 396.214081,748.543762 396.312653,751.022827 
	C396.426117,753.875854 395.366211,755.156860 392.314240,755.372375 
	C380.684204,756.193481 380.679901,756.286316 380.666046,744.754150 
	C380.651611,732.757324 380.791962,720.758179 380.585938,708.764893 
	C380.517914,704.804626 381.985168,703.949707 385.757416,703.514221 
	C393.282135,702.645447 398.339111,704.675842 400.176453,712.488220 
	C400.362091,713.277466 400.865631,713.998413 401.264496,714.727600 
	C401.415161,715.002991 401.687286,715.211975 402.669983,716.296631 
	C402.669983,713.110291 402.626251,710.725098 402.688873,708.342712 
	C402.719177,707.190002 402.523102,705.441833 403.158569,704.991150 
	C407.012299,702.257629 411.491333,704.179077 415.684814,703.721069 
	C417.730743,703.497620 419.345978,704.154663 419.313293,707.158081 
z"/>
<path fill="#000000" opacity="1.000000" stroke="none" 
	d="
M680.952515,703.662964 
	C693.667786,703.682739 700.774597,707.607971 704.111267,716.282837 
	C706.343994,722.087646 705.945007,727.875488 702.657959,733.053955 
	C700.504333,736.446899 700.938721,738.879333 703.084961,741.984009 
	C705.743347,745.829773 709.104431,749.400940 710.304138,754.402222 
	C698.795959,757.332214 689.498596,755.937622 684.711731,743.669617 
	C683.816345,744.790405 683.504395,745.006897 683.450012,745.275574 
	C682.807129,748.449768 685.010559,753.112122 681.977966,754.600464 
	C677.742310,756.679321 672.493530,755.269653 667.681030,755.271606 
	C665.959778,755.272339 665.686890,753.739441 665.682922,752.344910 
	C665.639832,737.183228 665.629150,722.021423 665.574158,706.859863 
	C665.565613,704.491394 666.718018,703.641235 668.966614,703.676453 
	C672.797791,703.736389 676.630798,703.674133 680.952515,703.662964 
M686.955139,720.530212 
	C679.728577,718.902893 684.560486,723.923401 683.220398,726.364014 
	C687.205750,725.734680 689.553894,724.894897 686.955139,720.530212 
z"/>
<path fill="#000000" opacity="1.000000" stroke="none" 
	d="
M531.731689,722.629883 
	C533.472168,722.626404 534.803772,722.618591 536.135315,722.611145 
	C545.010620,722.561584 544.779358,722.583740 545.616943,731.321899 
	C546.032410,735.656250 544.525452,736.978027 540.456970,736.968323 
	C536.592834,736.959106 532.671143,736.094116 528.810669,738.086243 
	C532.789795,738.086243 536.770447,738.014404 540.747681,738.101135 
	C549.228699,738.285950 549.228027,738.319641 549.261230,746.826538 
	C549.267029,748.324524 549.239136,749.823486 549.284790,751.320251 
	C549.364746,753.942078 548.327026,755.352539 545.502197,755.339478 
	C535.182800,755.291748 524.862915,755.292542 514.543579,755.350525 
	C511.796234,755.366028 510.675049,754.174988 510.682465,751.452942 
	C510.722473,736.810791 510.720184,722.168396 510.656036,707.526367 
	C510.644073,704.796570 511.694427,703.641724 514.479858,703.661682 
	C524.798889,703.735474 535.118958,703.679077 545.438599,703.689270 
	C546.096619,703.689880 547.005737,703.590393 547.373718,703.959961 
	C551.242493,707.844543 548.826111,712.695435 549.143677,717.101501 
	C549.356262,720.049927 546.742249,720.226746 544.479797,720.231140 
	C539.377441,720.241150 534.275085,720.234253 529.262573,720.234253 
	C528.806274,722.786865 530.259766,722.468994 531.731689,722.629883 
z"/>
<path fill="#000000" opacity="1.000000" stroke="none" 
	d="
M660.246826,733.657043 
	C658.239563,738.131470 654.491272,736.494019 651.454224,736.671509 
	C648.922668,736.819519 646.320984,735.936340 643.902039,737.059692 
	C643.899353,737.527344 643.896729,737.995056 643.894043,738.462708 
	C648.571289,738.462708 653.259644,738.663635 657.922791,738.407166 
	C662.740540,738.142212 664.191040,740.205322 664.147583,744.858887 
	C664.027649,757.702209 664.033325,755.144531 653.646790,755.320740 
	C645.830811,755.453308 638.010498,755.323730 630.192139,755.330872 
	C627.893066,755.333008 625.718079,755.220764 625.717468,752.091492 
	C625.714539,736.158142 625.716125,720.224792 625.716125,703.714661 
	C637.696472,703.714661 649.282593,703.713684 660.868774,703.719849 
	C661.198608,703.719971 661.631836,703.675110 661.843018,703.855225 
	C666.191345,707.560364 663.481079,712.472717 663.933044,716.825562 
	C664.238220,719.765259 661.919067,720.153442 659.544006,720.218384 
	C654.362793,720.359924 649.112305,719.500671 642.860718,720.750671 
	C646.574219,723.660767 649.754822,722.507141 652.640442,722.574097 
	C660.307373,722.752197 660.311218,722.639221 660.315369,730.204773 
	C660.315918,731.202759 660.296082,732.200806 660.246826,733.657043 
z"/>
<path fill="#000000" opacity="1.000000" stroke="none" 
	d="
M318.661438,755.336182 
	C308.548737,755.344299 298.892975,755.248596 289.241119,755.401794 
	C285.785248,755.456604 284.584259,754.214966 284.618073,750.749756 
	C284.755981,736.602661 284.747314,722.452820 284.621033,708.305542 
	C284.590668,704.901733 285.698822,703.562805 289.207794,703.620239 
	C299.025848,703.780945 308.848938,703.741150 318.668457,703.633972 
	C321.625427,703.601746 322.745789,704.732300 322.957123,707.680481 
	C323.835358,719.933044 323.524445,720.348877 311.555695,720.182861 
	C305.888550,720.104248 305.888550,720.104248 302.288971,721.749878 
	C308.051483,723.567993 313.408264,721.862732 318.761017,722.997314 
	C319.831451,727.175659 319.350952,731.405701 319.099335,735.687561 
	C313.777985,738.124878 308.139313,735.314575 302.886292,737.042297 
	C303.261475,738.957092 304.635559,738.469116 305.689362,738.447815 
	C307.183197,738.417664 308.671906,738.160400 310.166168,738.116882 
	C322.846405,737.747681 324.883331,740.197327 322.702606,752.834412 
	C322.307831,755.122070 320.871124,755.303284 318.661438,755.336182 
z"/>
<path fill="#000000" opacity="1.000000" stroke="none" 
	d="
M146.805237,732.829773 
	C146.797745,724.364075 146.884064,716.375183 146.754120,708.389832 
	C146.700104,705.071167 147.747726,703.550049 151.324539,703.630920 
	C167.202942,703.989868 163.971863,701.416199 164.327682,716.293640 
	C164.462921,721.948364 164.369125,727.609253 164.330368,733.267029 
	C164.314240,735.623169 164.714828,737.994934 167.505096,737.983826 
	C170.322906,737.972656 170.640213,735.508545 170.643234,733.213562 
	C170.654175,724.893066 170.783508,716.570129 170.616745,708.253174 
	C170.547363,704.792542 171.788345,703.684021 175.233826,703.599304 
	C188.347733,703.276855 188.346512,703.168030 188.341278,716.041748 
	C188.338776,722.198975 188.347214,728.356262 188.319763,734.513428 
	C188.265488,746.684998 179.889069,755.468689 167.980667,755.868103 
	C156.404846,756.256348 147.360458,747.473145 146.813690,735.304810 
	C146.783844,734.640564 146.811127,733.973694 146.805237,732.829773 
z"/>
<path fill="#000000" opacity="1.000000" stroke="none" 
	d="
M578.815857,716.965820 
	C577.917175,712.554749 575.885986,708.797607 575.999084,703.783752 
	C581.081238,703.783752 586.008911,703.703186 590.932007,703.817810 
	C593.381042,703.874817 593.466187,706.216553 594.030029,707.825073 
	C595.874878,713.088013 597.548584,718.410950 600.344849,723.694458 
	C602.122192,718.412476 604.012573,713.164795 605.632385,707.834961 
	C606.533752,704.868713 608.037170,703.338989 611.311157,703.633301 
	C615.414001,704.002197 619.594788,703.126892 623.589172,704.166626 
	C624.622192,706.234619 623.537720,707.959412 623.069702,709.629822 
	C619.215210,723.387939 615.158691,737.089905 611.358459,750.862671 
	C610.457397,754.128418 608.924866,755.810364 605.454956,755.350464 
	C604.964478,755.285461 604.456970,755.359192 603.957825,755.348206 
	C586.318115,754.959656 591.190552,758.185669 585.901611,741.785217 
	C583.303894,733.729858 581.223755,725.507507 578.815857,716.965820 
z"/>
<path fill="#000000" opacity="1.000000" stroke="none" 
	d="
M275.085754,162.899826 
	C287.336731,175.863754 298.801910,189.087051 311.619904,201.013092 
	C314.364349,203.566559 314.234192,208.282410 311.202942,209.420898 
	C301.284363,213.146179 295.042236,221.273727 287.987640,228.438004 
	C287.440430,228.993729 287.151886,229.804138 286.683746,230.596710 
	C289.518097,234.229126 293.630798,235.948318 296.968689,238.630508 
	C299.189484,240.415085 301.344360,242.079941 299.172913,245.168991 
	C297.184082,247.998276 294.910248,246.889343 292.669800,245.406891 
	C291.280731,244.487762 289.892151,243.555862 288.435120,242.753632 
	C284.590393,240.636749 281.580292,237.173477 276.470917,237.192139 
	C270.894348,237.212540 272.206451,230.442078 268.271210,227.791718 
	C258.630280,221.298584 249.831345,213.553940 240.708160,206.294586 
	C239.145233,205.050949 237.619980,203.754791 236.139114,202.414642 
	C234.380753,200.823349 234.229965,198.875366 235.568268,197.046661 
	C236.910034,195.213242 238.890823,194.794647 240.903534,195.888382 
	C242.203262,196.594650 243.330322,197.630417 244.500580,198.561447 
	C254.408569,206.443924 264.367218,214.264557 274.177582,222.266876 
	C277.365753,224.867462 279.631927,224.769379 282.634155,221.773560 
	C288.633392,215.787109 295.056549,210.225494 301.453461,204.351791 
	C300.452606,201.153809 298.050507,199.059555 295.912201,196.822037 
	C287.278992,187.788239 278.584351,178.813187 269.945740,169.784546 
	C268.451660,168.223007 267.086426,166.533539 265.720154,164.855545 
	C263.956055,162.689026 262.311157,160.247406 265.010620,157.863159 
	C267.966125,155.252777 270.181610,157.479553 272.190338,159.644577 
	C273.096893,160.621643 273.970062,161.629639 275.085754,162.899826 
z"/>
<path fill="#000000" opacity="1.000000" stroke="none" 
	d="
M537.310425,204.275391 
	C540.039001,202.051651 542.551331,200.121750 544.912109,198.021515 
	C547.414062,195.795700 550.139160,193.475220 553.010437,196.811111 
	C556.197205,200.513611 552.923157,202.796326 550.268616,204.882446 
	C541.503174,211.771027 532.645630,218.544327 523.961304,225.533249 
	C520.682373,228.172028 516.648560,230.295410 515.894348,235.187378 
	C515.712585,236.365799 514.429688,237.067047 513.237610,237.175766 
	C507.291382,237.718002 502.848419,241.413361 498.012939,244.292007 
	C497.013367,244.887100 496.078613,245.655716 495.005707,246.048935 
	C493.037292,246.770355 490.955414,246.931763 489.613068,244.929337 
	C488.135040,242.724487 489.596619,241.137268 491.210693,239.840546 
	C494.064972,237.547485 496.928802,235.250763 499.935883,233.168213 
	C502.642120,231.294022 502.985931,229.566147 500.456635,227.258682 
	C494.678223,221.987091 488.986511,216.620499 483.251770,211.300903 
	C482.137299,210.267136 480.836029,209.708023 479.331055,209.287994 
	C475.122131,208.113342 474.203003,204.479370 477.429718,201.438843 
	C491.617218,188.069977 504.601532,173.557602 517.741516,159.194717 
	C519.864868,156.873764 521.957153,155.827728 524.555237,158.103455 
	C527.314026,160.519943 526.027161,162.685501 523.992065,164.902771 
	C513.186157,176.675613 502.545837,188.602646 491.044037,199.717545 
	C489.868073,200.853912 488.833923,202.137009 487.333832,203.794067 
	C495.169250,211.096481 502.775635,218.185425 510.762146,225.628616 
	C519.702148,218.435089 528.364807,211.464691 537.310425,204.275391 
z"/>
<path fill="#000000" opacity="1.000000" stroke="none" 
	d="
M417.299652,255.059814 
	C419.044983,264.989532 416.119354,271.579926 406.646240,275.314117 
	C402.293854,277.029755 398.716675,282.557922 394.678436,282.678162 
	C391.021881,282.786987 387.570618,276.939819 383.406921,275.394836 
	C372.989288,271.529266 370.371002,264.403625 371.580475,254.090881 
	C372.428925,246.856476 371.745728,246.776337 379.274384,246.769180 
	C388.287354,246.760605 388.239624,246.778564 391.315277,254.952850 
	C392.176300,257.241180 392.774323,259.707245 394.780457,261.940430 
	C396.897644,258.504761 397.995605,254.941711 398.922302,251.309647 
	C399.167725,250.347763 399.007843,248.924210 399.608124,248.467957 
	C404.317230,244.888855 409.765320,247.021423 414.858521,247.013641 
	C418.237488,247.008469 416.981323,250.464523 417.279999,252.578262 
	C417.372162,253.230591 417.296753,253.906601 417.299652,255.059814 
z"/>
<path fill="#000000" opacity="1.000000" stroke="none" 
	d="
M557.126404,755.354004 
	C551.977905,755.981750 550.626526,753.829102 550.703186,749.325867 
	C550.929810,736.006775 550.904480,722.679016 550.687988,709.359314 
	C550.618103,705.062073 551.927673,703.533447 556.374634,703.568909 
	C568.330078,703.664368 568.331909,703.476501 568.336243,715.355286 
	C568.338501,721.517334 568.459595,727.682556 568.292419,733.840027 
	C568.202942,737.137939 568.902771,738.708191 572.744995,738.361145 
	C579.060364,737.790894 579.372803,738.229675 579.312317,744.386963 
	C579.187317,757.112061 580.967773,755.158569 568.600830,755.347717 
	C564.937805,755.403748 561.273132,755.355530 557.126404,755.354004 
z"/>
<path fill="#000000" opacity="1.000000" stroke="none" 
	d="
M280.358063,541.363525 
	C285.633392,536.263062 290.663452,531.410034 295.717560,526.582214 
	C296.918823,525.434753 298.106049,524.233887 299.466095,523.299683 
	C301.922607,521.612244 304.233673,522.107849 306.074768,524.359802 
	C307.917450,526.613708 306.607086,528.354980 304.925873,529.956787 
	C298.299988,536.269714 291.617004,542.524231 285.068939,548.916870 
	C280.903839,552.983215 276.885315,557.204346 272.904755,561.453247 
	C270.531403,563.986633 268.010803,565.154297 265.176208,562.478394 
	C262.255341,559.721130 264.116608,557.488831 266.312195,555.340515 
	C270.950012,550.802551 275.522339,546.197632 280.358063,541.363525 
z"/>
<path fill="#000000" opacity="1.000000" stroke="none" 
	d="
M485.333313,522.479248 
	C488.348511,522.058350 490.122894,523.743103 491.748871,525.342041 
	C502.188293,535.607971 512.551331,545.951660 522.927551,556.281799 
	C525.121094,558.465637 525.816162,560.934143 523.291016,563.215515 
	C520.956482,565.324646 518.708008,564.380066 516.768738,562.295410 
	C506.223022,550.959534 495.281555,540.025635 483.870941,529.553650 
	C481.070160,526.983215 481.076599,524.336609 485.333313,522.479248 
z"/>
<path fill="#000000" opacity="1.000000" stroke="none" 
	d="
M467.596680,150.147430 
	C469.416809,152.524582 468.522003,154.487122 467.583313,156.490677 
	C464.135986,163.848953 460.729797,171.226471 457.292572,178.589523 
	C456.044556,181.263077 454.447968,184.059891 451.007843,182.643524 
	C447.363464,181.143051 447.946167,178.090698 449.375183,175.066208 
	C452.917877,167.568069 456.351959,160.018677 459.884491,152.515671 
	C461.447235,149.196472 463.662384,147.407318 467.596680,150.147430 
z"/>
<path fill="#000000" opacity="1.000000" stroke="none" 
	d="
M331.489624,157.589615 
	C334.247864,163.516739 336.859833,169.098480 339.450531,174.690094 
	C340.824097,177.654724 341.443176,180.819016 337.918854,182.465240 
	C333.937103,184.325119 332.796661,180.826477 331.546906,178.116638 
	C328.268860,171.008743 325.023926,163.885437 321.800446,156.752609 
	C320.608643,154.115372 319.230042,151.168579 322.720490,149.355820 
	C326.558075,147.362778 328.037048,150.357895 329.369812,153.202545 
	C330.005798,154.559998 330.678497,155.900269 331.489624,157.589615 
z"/>
<path fill="#000000" opacity="1.000000" stroke="none" 
	d="
M330.794067,566.693726 
	C329.809265,568.845825 329.132751,570.743652 328.116760,572.437927 
	C326.941223,574.398193 324.979980,574.899292 322.902161,574.085144 
	C320.739227,573.237610 319.751495,571.361328 320.565765,569.241028 
	C323.957642,560.408630 327.927032,551.825134 332.688965,543.644165 
	C333.809937,541.718384 335.857269,541.212585 337.888275,542.557068 
	C340.310333,544.160339 340.174591,546.488586 339.152435,548.752869 
	C336.490082,554.650513 333.694672,560.488037 330.794067,566.693726 
z"/>
<path fill="#000000" opacity="1.000000" stroke="none" 
	d="
M459.861633,549.245239 
	C462.519745,555.199890 465.065430,560.793396 467.463318,566.449463 
	C468.580475,569.084534 469.744568,572.251648 466.311401,573.832886 
	C462.618317,575.533813 460.954742,572.582336 459.676300,569.698669 
	C456.781738,563.169922 453.867310,556.649353 451.050781,550.086914 
	C449.878510,547.355591 448.177979,544.213623 452.147583,542.396362 
	C456.194885,540.543579 457.204742,544.095703 458.610718,546.663452 
	C459.009033,547.390869 459.331482,548.159790 459.861633,549.245239 
z"/>
<path fill="#000000" opacity="1.000000" stroke="none" 
	d="
M206.239777,245.897797 
	C204.606003,245.000595 203.160492,244.438721 202.075684,243.472061 
	C200.334335,241.920395 200.597641,239.954529 201.540054,238.005264 
	C202.478882,236.063400 204.085327,235.305695 206.036133,235.917419 
	C207.742188,236.452438 209.367920,237.340424 210.914551,238.264328 
	C213.259293,239.665039 213.808212,241.778336 212.767349,244.261826 
	C211.464325,247.370804 209.136673,247.134842 206.239777,245.897797 
z"/>
<path fill="#000000" opacity="1.000000" stroke="none" 
	d="
M588.348755,241.611786 
	C587.216370,244.270569 584.875610,244.925079 582.943176,246.119049 
	C581.218018,247.184875 579.614868,247.502167 578.120422,245.744492 
	C576.735962,244.116211 575.972656,242.160706 576.984558,240.278183 
	C578.491943,237.473755 581.313416,235.979416 584.341003,236.055649 
	C587.209167,236.127853 588.441162,238.431931 588.348755,241.611786 
z"/>
<path fill="#000000" opacity="1.000000" stroke="none" 
	d="
M209.010620,475.906677 
	C212.414551,476.896820 214.116364,479.013000 212.542313,481.915131 
	C210.829056,485.073944 207.681335,486.979675 203.953369,486.677704 
	C202.290970,486.543060 201.508621,484.558960 201.090469,482.919403 
	C200.633820,481.128998 201.237869,479.522186 202.803986,478.618164 
	C204.649170,477.553101 206.672241,476.796204 209.010620,475.906677 
z"/>
<path fill="#000000" opacity="1.000000" stroke="none" 
	d="
M582.291626,476.372192 
	C582.942810,476.674011 583.279785,476.771271 583.529297,476.975403 
	C585.422729,478.524170 588.955994,478.617371 588.406616,482.347626 
	C588.154541,484.058838 587.464294,485.753693 585.721741,486.215576 
	C582.775391,486.996521 580.829285,484.729218 578.679626,483.300415 
	C576.946838,482.148682 576.530090,480.438568 577.237610,478.494904 
	C578.060181,476.235413 579.632141,475.452911 582.291626,476.372192 
z"/>
<path fill="#000000" opacity="1.000000" stroke="none" 
	d="
M296.614990,342.394775 
	C299.776306,341.465149 302.525818,340.281860 305.579498,340.760773 
	C304.643555,345.185638 301.353363,348.043396 297.669250,347.627136 
	C296.391418,347.482727 294.895142,347.387695 294.287567,345.986084 
	C293.463593,344.085327 295.139404,343.446808 296.614990,342.394775 
z"/>
<path fill="#000000" opacity="1.000000" stroke="none" 
	d="
M487.776581,325.130493 
	C484.575928,321.183319 481.612396,317.490204 478.028931,313.024506 
	C486.611572,313.024506 494.047424,313.024506 502.929626,313.024506 
	C498.882965,317.887360 495.718994,321.838959 492.376282,325.633057 
	C491.033447,327.157166 489.396362,326.787689 487.776581,325.130493 
z"/>
<path fill="#000000" opacity="1.000000" stroke="none" 
	d="
M498.912048,332.303741 
	C496.683319,331.596619 494.534851,331.581482 493.091980,329.091034 
	C496.476471,324.976654 499.981415,320.715881 504.152161,315.645691 
	C506.569611,321.214508 508.914337,326.009857 510.088013,331.266296 
	C510.587585,333.503784 508.995026,334.273712 507.078949,333.984924 
	C504.465454,333.590912 501.890930,332.938416 498.912048,332.303741 
z"/>
<path fill="#000000" opacity="1.000000" stroke="none" 
	d="
M486.100403,326.932709 
	C487.419434,328.526581 488.786743,330.322083 486.387115,331.154022 
	C481.657501,332.793701 476.935883,335.077972 471.088226,334.042236 
	C472.094482,327.977386 474.047821,322.716125 476.860107,317.207977 
	C481.268951,319.523895 482.601807,324.049744 486.100403,326.932709 
z"/>
<path fill="#000000" opacity="1.000000" stroke="none" 
	d="
M499.796875,306.389008 
	C500.747559,307.874908 500.861145,309.137329 499.143982,309.176788 
	C493.443481,309.307770 487.738159,309.226318 481.477875,309.226318 
	C483.111145,304.305756 486.414337,301.694580 489.115997,298.692200 
	C490.487000,297.168579 491.889191,298.285553 492.969482,299.346100 
	C495.214569,301.550140 497.368378,303.847198 499.796875,306.389008 
z"/>
<path fill="#000000" opacity="1.000000" stroke="none" 
	d="
M492.459656,333.974121 
	C498.232758,333.338531 503.110382,335.508789 509.667175,337.047607 
	C503.295959,340.662781 498.280182,343.508820 492.893158,346.565552 
	C491.079315,342.002228 491.653961,338.136292 492.459656,333.974121 
z"/>
<path fill="#000000" opacity="1.000000" stroke="none" 
	d="
M475.014038,336.284241 
	C479.726440,335.410278 484.085663,334.649414 488.881134,333.812378 
	C489.548859,338.036285 490.002380,341.829376 488.567993,346.360840 
	C482.958618,344.622772 478.563721,341.196869 473.964752,338.231354 
	C473.041107,337.635803 473.857086,336.810577 475.014038,336.284241 
z"/>
<path fill="#000000" opacity="1.000000" stroke="none" 
	d="
M468.612610,315.735291 
	C468.645782,314.091736 467.481140,312.817108 468.714722,311.628937 
	C474.833405,313.133118 475.238525,317.906647 469.764465,327.147644 
	C467.706085,323.449249 469.119415,319.676453 468.612610,315.735291 
z"/>
<path fill="#000000" opacity="1.000000" stroke="none" 
	d="
M510.564789,324.656799 
	C509.690796,321.984650 508.961334,319.611572 508.180908,317.255402 
	C507.123138,314.061981 508.381744,312.295074 511.746582,311.300415 
	C513.077332,316.136658 512.288269,320.766052 512.213745,325.316437 
	C512.193420,326.560822 511.108459,325.680511 510.564789,324.656799 
z"/>
<path fill="#000000" opacity="1.000000" stroke="none" 
	d="
M475.670349,308.948547 
	C474.181061,309.048920 472.979584,309.322937 471.820160,307.922607 
	C474.638397,305.176971 478.099609,303.715332 482.648529,301.997467 
	C480.619873,305.427582 478.446350,307.262421 475.670349,308.948547 
z"/>
</svg>